# Blender v2.91.0 OBJ File: 'hexTank1.blend'
# www.blender.org
o canopy.1_Sphere.012
v 0.000000 1.484446 0.315980
v 0.000000 1.328177 0.616115
v 0.000000 1.117561 0.885356
v 0.000000 0.885355 1.110201
v 0.000000 0.616115 1.279376
v 0.000000 0.000000 1.420000
v 0.000000 -0.315980 1.384398
v 0.000000 -0.616115 1.279376
v 0.000000 -0.885355 1.110201
v 0.000000 -1.110201 0.885355
v 0.000000 -1.279376 0.616115
v 0.000000 -1.384398 0.315979
v -0.273647 1.484446 0.157990
v -0.533572 1.328177 0.308057
v -0.766741 1.117562 0.442678
v -0.961462 0.885355 0.555100
v -1.107972 0.616115 0.639688
v -1.198924 0.315980 0.692199
v -1.229756 0.000000 0.710000
v -1.198924 -0.315980 0.692199
v -1.107972 -0.616115 0.639688
v -0.961462 -0.885355 0.555100
v -0.766741 -1.110201 0.442677
v -0.533571 -1.279376 0.308057
v -0.273647 -1.384398 0.157989
v -0.273647 1.484446 -0.157991
v -0.533572 1.328177 -0.308058
v -0.766741 1.117562 -0.442679
v -0.961462 0.885355 -0.555101
v -1.107972 0.616115 -0.639689
v -1.198924 0.315980 -0.692200
v -1.229756 0.000000 -0.710001
v -1.198924 -0.315980 -0.692200
v -1.107972 -0.616115 -0.639689
v -0.961462 -0.885355 -0.555101
v -0.766741 -1.110201 -0.442679
v -0.533571 -1.279376 -0.308058
v -0.273647 -1.384398 -0.157990
v 0.000000 1.484446 -0.315981
v 0.000000 1.328177 -0.616116
v 0.000000 1.117562 -0.885357
v 0.000000 0.885355 -1.110202
v 0.000000 0.616115 -1.279377
v 0.000000 0.315980 -1.384398
v 0.000000 0.000000 -1.420001
v 0.000000 -0.315980 -1.384398
v 0.000000 -0.616115 -1.279377
v 0.000000 -0.885355 -1.110202
v 0.000000 -1.110201 -0.885356
v 0.000000 -1.279376 -0.616116
v 0.000000 -1.384398 -0.315980
v 0.000000 -1.420000 -0.000000
v 0.273647 1.484446 -0.157990
v 0.533572 1.328177 -0.308058
v 0.766741 1.117562 -0.442678
v 0.961463 0.885355 -0.555101
v 1.107973 0.616115 -0.639688
v 1.198924 0.315980 -0.692199
v 1.229757 0.000000 -0.710000
v 1.198924 -0.315980 -0.692199
v 1.107973 -0.616115 -0.639688
v 0.961463 -0.885355 -0.555101
v 0.766741 -1.110201 -0.442678
v 0.533571 -1.279376 -0.308058
v 0.273647 -1.384398 -0.157990
v 0.273647 1.484446 0.157990
v 0.533571 1.328177 0.308057
v 0.766741 1.117562 0.442678
v 0.961462 0.885355 0.555100
v 1.107972 0.616115 0.639688
v 1.198924 0.315980 0.692199
v 1.229756 0.000000 0.710000
v 1.198924 -0.315980 0.692199
v 1.107972 -0.616115 0.639688
v 0.961462 -0.885355 0.555100
v 0.766741 -1.110201 0.442678
v 0.533571 -1.279376 0.308057
v 0.273647 -1.384398 0.157990
v -0.000000 0.315980 1.384398
vt 0.583333 0.000000
vt 0.500000 0.071429
vt 0.666667 0.071429
vt 0.666667 0.500000
vt 0.500000 0.500000
vt 0.500000 0.571429
vt 0.666667 0.571429
vt 0.666667 0.428571
vt 0.500000 0.428571
vt 0.666667 0.357143
vt 0.500000 0.357143
vt 0.666667 0.857143
vt 0.500000 0.857143
vt 0.500000 0.928571
vt 0.666667 0.928571
vt 0.666667 0.285714
vt 0.500000 0.285714
vt 0.666667 0.785714
vt 0.500000 0.785714
vt 0.666667 0.214286
vt 0.500000 0.214286
vt 0.666667 0.714286
vt 0.500000 0.714286
vt 0.666667 0.142857
vt 0.500000 0.142857
vt 0.666667 0.642857
vt 0.500000 0.642857
vt 0.333333 0.500000
vt 0.333333 0.571429
vt 0.333333 0.428572
vt 0.333333 0.357143
vt 0.333333 0.857143
vt 0.333333 0.928571
vt 0.333333 0.285714
vt 0.333333 0.785714
vt 0.333333 0.214286
vt 0.333333 0.714286
vt 0.333333 0.142857
vt 0.333333 0.642857
vt 0.333333 0.071429
vt 0.416666 0.000000
vt 0.166667 0.428572
vt 0.166667 0.500000
vt 0.166667 0.357143
vt 0.166667 0.857143
vt 0.166667 0.928571
vt 0.166667 0.285714
vt 0.166667 0.785714
vt 0.166667 0.214286
vt 0.166667 0.714286
vt 0.166667 0.142857
vt 0.166667 0.642857
vt 0.166667 0.071429
vt 0.166667 0.571429
vt 0.250000 0.000000
vt 0.000000 0.357143
vt 0.000000 0.428572
vt 0.000000 0.857143
vt 0.000000 0.928571
vt 0.000000 0.285714
vt 0.000000 0.785714
vt 0.000000 0.214286
vt 0.000000 0.714286
vt 0.000000 0.142857
vt 0.000000 0.642857
vt 0.000000 0.071429
vt 0.000000 0.571429
vt 0.083334 0.000000
vt 0.000000 0.500000
vt 1.000000 0.357143
vt 0.833333 0.357143
vt 0.833333 0.428571
vt 1.000000 0.428572
vt 1.000000 0.857143
vt 0.833333 0.857143
vt 0.833333 0.928571
vt 1.000000 0.928571
vt 1.000000 0.285714
vt 0.833333 0.285714
vt 1.000000 0.785714
vt 0.833333 0.785714
vt 1.000000 0.214286
vt 0.833333 0.214286
vt 1.000000 0.714286
vt 0.833333 0.714286
vt 1.000000 0.142857
vt 0.833333 0.142857
vt 1.000000 0.642857
vt 0.833333 0.642857
vt 1.000000 0.071429
vt 0.833333 0.071429
vt 1.000000 0.571429
vt 0.833333 0.571429
vt 0.916667 0.000000
vt 1.000000 0.500000
vt 0.833333 0.500000
vt 0.750000 0.000000
vn 0.0000 1.0000 0.0000
vn 0.2228 0.9663 -0.1286
vn 0.0000 0.9663 -0.2572
vn 0.0000 0.0000 -1.0000
vn 0.8660 0.0000 -0.5000
vn 0.8457 -0.2151 -0.4883
vn 0.0000 -0.2151 -0.9766
vn 0.0000 0.2151 -0.9766
vn 0.8457 0.2151 -0.4883
vn 0.0000 0.4204 -0.9073
vn 0.7858 0.4204 -0.4537
vn 0.0000 -0.8272 -0.5619
vn 0.4866 -0.8272 -0.2809
vn 0.2677 -0.9510 -0.1545
vn 0.0000 -0.9510 -0.3091
vn 0.0000 0.6064 -0.7951
vn 0.6886 0.6064 -0.3976
vn 0.0000 -0.7324 -0.6809
vn 0.5896 -0.7324 -0.3404
vn 0.0000 0.7643 -0.6449
vn 0.5585 0.7643 -0.3224
vn 0.0000 -0.6013 -0.7990
vn 0.6919 -0.6013 -0.3995
vn 0.0000 0.8864 -0.4629
vn 0.4009 0.8864 -0.2315
vn 0.0000 -0.4204 -0.9073
vn 0.7858 -0.4204 -0.4537
vn 0.8660 0.0000 0.5000
vn 0.8457 -0.2151 0.4883
vn 0.8457 0.2151 0.4883
vn 0.7858 0.4204 0.4537
vn 0.4866 -0.8272 0.2809
vn 0.2677 -0.9510 0.1545
vn 0.6886 0.6064 0.3976
vn 0.5896 -0.7324 0.3404
vn 0.5585 0.7643 0.3224
vn 0.6919 -0.6013 0.3995
vn 0.4009 0.8864 0.2315
vn 0.7858 -0.4204 0.4537
vn 0.2228 0.9663 0.1286
vn 0.0000 0.2151 0.9766
vn 0.0000 0.0000 1.0000
vn 0.0000 0.4204 0.9073
vn 0.0000 -0.8272 0.5619
vn 0.0000 -0.9510 0.3091
vn 0.0000 0.6064 0.7951
vn 0.0000 -0.7324 0.6809
vn 0.0000 0.7643 0.6449
vn 0.0000 -0.6013 0.7990
vn 0.0000 0.8864 0.4629
vn 0.0000 -0.4204 0.9073
vn 0.0000 0.9663 0.2572
vn 0.0000 -0.2151 0.9766
vn -0.7858 0.4204 0.4537
vn -0.8457 0.2151 0.4883
vn -0.4866 -0.8272 0.2809
vn -0.2677 -0.9510 0.1545
vn -0.6886 0.6064 0.3976
vn -0.5896 -0.7324 0.3404
vn -0.5585 0.7643 0.3224
vn -0.6919 -0.6013 0.3995
vn -0.4009 0.8864 0.2315
vn -0.7858 -0.4204 0.4537
vn -0.2228 0.9663 0.1286
vn -0.8457 -0.2151 0.4883
vn -0.8660 0.0000 0.5000
vn -0.7858 0.4204 -0.4537
vn -0.8457 0.2151 -0.4883
vn -0.4866 -0.8272 -0.2809
vn -0.2677 -0.9510 -0.1545
vn -0.6886 0.6064 -0.3976
vn -0.5896 -0.7324 -0.3404
vn -0.5585 0.7643 -0.3224
vn -0.6919 -0.6013 -0.3995
vn -0.4009 0.8864 -0.2315
vn -0.7858 -0.4204 -0.4537
vn -0.2228 0.9663 -0.1286
vn -0.8457 -0.2151 -0.4883
vn -0.8660 0.0000 -0.5000
s 1
f 52/1/1 25/2/2 12/3/3
f 6/4/4 19/5/5 18/6/6 79/7/7
f 7/8/8 20/9/9 19/5/5 6/4/4
f 8/10/10 21/11/11 20/9/9 7/8/8
f 2/12/12 14/13/13 13/14/14 1/15/15
f 9/16/16 22/17/17 21/11/11 8/10/10
f 3/18/18 15/19/19 14/13/13 2/12/12
f 10/20/20 23/21/21 22/17/17 9/16/16
f 4/22/22 16/23/23 15/19/19 3/18/18
f 11/24/24 24/25/25 23/21/21 10/20/20
f 5/26/26 17/27/27 16/23/23 4/22/22
f 12/3/3 25/2/2 24/25/25 11/24/24
f 79/7/7 18/6/6 17/27/27 5/26/26
f 19/5/5 32/28/28 31/29/29 18/6/6
f 20/9/9 33/30/30 32/28/28 19/5/5
f 21/11/11 34/31/31 33/30/30 20/9/9
f 14/13/13 27/32/32 26/33/33 13/14/14
f 22/17/17 35/34/34 34/31/31 21/11/11
f 15/19/19 28/35/35 27/32/32 14/13/13
f 23/21/21 36/36/36 35/34/34 22/17/17
f 16/23/23 29/37/37 28/35/35 15/19/19
f 24/25/25 37/38/38 36/36/36 23/21/21
f 17/27/27 30/39/39 29/37/37 16/23/23
f 25/2/2 38/40/40 37/38/38 24/25/25
f 18/6/6 31/29/29 30/39/39 17/27/27
f 52/41/1 38/40/40 25/2/2
f 33/30/30 46/42/41 45/43/42 32/28/28
f 34/31/31 47/44/43 46/42/41 33/30/30
f 27/32/32 40/45/44 39/46/45 26/33/33
f 35/34/34 48/47/46 47/44/43 34/31/31
f 28/35/35 41/48/47 40/45/44 27/32/32
f 36/36/36 49/49/48 48/47/46 35/34/34
f 29/37/37 42/50/49 41/48/47 28/35/35
f 37/38/38 50/51/50 49/49/48 36/36/36
f 30/39/39 43/52/51 42/50/49 29/37/37
f 38/40/40 51/53/52 50/51/50 37/38/38
f 31/29/29 44/54/53 43/52/51 30/39/39
f 52/55/1 51/53/52 38/40/40
f 32/28/28 45/43/42 44/54/53 31/29/29
f 47/44/43 61/56/54 60/57/55 46/42/41
f 40/45/44 54/58/56 53/59/57 39/46/45
f 48/47/46 62/60/58 61/56/54 47/44/43
f 41/48/47 55/61/59 54/58/56 40/45/44
f 49/49/48 63/62/60 62/60/58 48/47/46
f 42/50/49 56/63/61 55/61/59 41/48/47
f 50/51/50 64/64/62 63/62/60 49/49/48
f 43/52/51 57/65/63 56/63/61 42/50/49
f 51/53/52 65/66/64 64/64/62 50/51/50
f 44/54/53 58/67/65 57/65/63 43/52/51
f 52/68/1 65/66/64 51/53/52
f 45/43/42 59/69/66 58/67/65 44/54/53
f 46/42/41 60/57/55 59/69/66 45/43/42
f 61/70/54 74/71/67 73/72/68 60/73/55
f 54/74/56 67/75/69 66/76/70 53/77/57
f 62/78/58 75/79/71 74/71/67 61/70/54
f 55/80/59 68/81/72 67/75/69 54/74/56
f 63/82/60 76/83/73 75/79/71 62/78/58
f 56/84/61 69/85/74 68/81/72 55/80/59
f 64/86/62 77/87/75 76/83/73 63/82/60
f 57/88/63 70/89/76 69/85/74 56/84/61
f 65/90/64 78/91/77 77/87/75 64/86/62
f 58/92/65 71/93/78 70/89/76 57/88/63
f 52/94/1 78/91/77 65/90/64
f 59/95/66 72/96/79 71/93/78 58/92/65
f 60/73/55 73/72/68 72/96/79 59/95/66
f 67/75/69 2/12/12 1/15/15 66/76/70
f 75/79/71 9/16/16 8/10/10 74/71/67
f 68/81/72 3/18/18 2/12/12 67/75/69
f 76/83/73 10/20/20 9/16/16 75/79/71
f 69/85/74 4/22/22 3/18/18 68/81/72
f 77/87/75 11/24/24 10/20/20 76/83/73
f 70/89/76 5/26/26 4/22/22 69/85/74
f 78/91/77 12/3/3 11/24/24 77/87/75
f 71/93/78 79/7/7 5/26/26 70/89/76
f 52/97/1 12/3/3 78/91/77
f 72/96/79 6/4/4 79/7/7 71/93/78
f 73/72/68 7/8/8 6/4/4 72/96/79
f 74/71/67 8/10/10 7/8/8 73/72/68
f 53/59/57 66/76/70 1/15/15 13/14/14 26/33/33 39/46/45
