# Blender v2.91.0 OBJ File: 'hexTank1.blend'
# www.blender.org
o console_Circle
v 0.000000 0.000000 1.410000
v 1.221096 0.000000 0.705000
v 1.221096 0.000000 -0.705000
v -0.000000 0.000000 -1.410000
v -1.221096 0.000000 -0.705000
v -1.221096 0.000000 0.705000
v 0.967837 -0.146468 0.558781
v 0.000000 -0.146468 1.117561
v 0.967837 -0.146468 -0.558781
v -0.000000 -0.146468 -1.117561
v -0.967837 -0.146468 -0.558781
v -0.967837 -0.146468 0.558781
v 0.967837 -0.911166 0.558781
v 0.000000 -0.911166 1.117561
v 0.967837 -0.911166 -0.558781
v -0.000000 -0.911166 -1.117561
v -0.967837 -0.911166 -0.558781
v -0.967837 -0.911166 0.558781
v 1.004008 -0.911166 0.579664
v -0.000000 -0.911166 1.159329
v 1.004008 -0.911166 -0.579664
v -0.000000 -0.911166 -1.159329
v -1.004008 -0.911166 -0.579664
v -1.004008 -0.911166 0.579664
v 1.170609 -0.455583 -0.675852
v 1.170609 -0.455583 0.675852
v -0.000000 -0.455583 1.351703
v -1.170609 -0.455583 0.675852
v -0.000000 -0.455583 -1.351703
v -1.170609 -0.455583 -0.675852
vt 0.268225 0.633815
vt 0.066987 0.750000
vt 0.500000 1.000000
vt 0.500000 0.767630
vt 0.268225 0.633815
vt 0.500000 0.767630
vt 0.500000 1.000000
vt 0.066987 0.750000
vt 0.268225 0.366185
vt 0.066987 0.250000
vt 0.500000 0.232370
vt 0.500000 0.000000
vt 0.731775 0.366185
vt 0.933013 0.250000
vt 0.731775 0.633815
vt 0.933013 0.750000
vt 0.268225 0.366185
vt 0.066987 0.250000
vt 0.500000 0.232370
vt 0.500000 0.000000
vt 0.731775 0.366185
vt 0.933013 0.250000
vt 0.731775 0.633815
vt 0.933013 0.750000
vt 0.066987 0.750000
vt 0.066987 0.250000
vt 0.933013 0.750000
vt 0.500000 1.000000
vt 0.500000 0.000000
vt 0.933013 0.250000
vn 0.0000 -1.0000 0.0000
vn -0.2503 0.8657 -0.4336
vn -0.5006 0.8657 0.0000
vn -0.2503 0.8657 0.4336
vn 0.2503 0.8657 0.4336
vn 0.5006 0.8657 0.0000
vn 0.2503 0.8657 -0.4336
vn 0.9392 -0.3434 0.0000
vn 1.0000 0.0000 0.0000
vn -0.4696 -0.3434 0.8133
vn -1.0000 0.0000 0.0000
vn 0.4696 -0.3434 -0.8133
vn 0.5000 0.0000 -0.8660
vn -0.5000 0.0000 0.8660
vn -0.4696 -0.3434 -0.8133
vn 0.4696 -0.3434 0.8133
vn 0.5000 0.0000 0.8660
vn -0.9392 -0.3434 0.0000
vn -0.5000 0.0000 -0.8660
vn -0.9939 -0.1101 0.0000
vn 0.4970 -0.1101 0.8608
vn -0.4970 -0.1101 -0.8608
vn 0.4970 -0.1101 -0.8608
vn -0.4970 -0.1101 0.8608
vn 0.9939 -0.1101 0.0000
s off
f 13/1/1 19/2/1 20/3/1 14/4/1
f 7/5/2 8/6/2 1/7/2 2/8/2
f 9/9/3 7/5/3 2/8/3 3/10/3
f 10/11/4 9/9/4 3/10/4 4/12/4
f 11/13/5 10/11/5 4/12/5 5/14/5
f 12/15/6 11/13/6 5/14/6 6/16/6
f 8/6/7 12/15/7 6/16/7 1/7/7
f 15/17/1 21/18/1 19/2/1 13/1/1
f 16/19/1 22/20/1 21/18/1 15/17/1
f 17/21/1 23/22/1 22/20/1 16/19/1
f 18/23/1 24/24/1 23/22/1 17/21/1
f 14/4/1 20/3/1 24/24/1 18/23/1
f 26/25/8 19/2/8 21/18/8 25/26/8
f 12/15/9 18/23/9 17/21/9 11/13/9
f 28/27/10 24/24/10 20/3/10 27/28/10
f 9/9/11 15/17/11 13/1/11 7/5/11
f 25/26/12 21/18/12 22/20/12 29/29/12
f 8/6/13 14/4/13 18/23/13 12/15/13
f 10/11/14 16/19/14 15/17/14 9/9/14
f 29/29/15 22/20/15 23/22/15 30/30/15
f 27/28/16 20/3/16 19/2/16 26/25/16
f 11/13/17 17/21/17 16/19/17 10/11/17
f 30/30/18 23/22/18 24/24/18 28/27/18
f 7/5/19 13/1/19 14/4/19 8/6/19
f 5/14/20 30/30/20 28/27/20 6/16/20
f 1/7/21 27/28/21 26/25/21 2/8/21
f 4/12/22 29/29/22 30/30/22 5/14/22
f 3/10/23 25/26/23 29/29/23 4/12/23
f 6/16/24 28/27/24 27/28/24 1/7/24
f 2/8/25 26/25/25 25/26/25 3/10/25
o Circle_Circle.001
v 0.000000 0.000000 1.410475
v 0.365058 0.000000 1.362414
v 0.705237 0.000000 1.221507
v 0.997356 0.000000 0.997356
v 1.221507 0.000000 0.705237
v 1.362414 0.000000 0.365058
v 1.410475 0.000000 0.000000
v 1.362414 0.000000 -0.365058
v 1.221507 0.000000 -0.705237
v 0.997356 0.000000 -0.997356
v 0.705238 0.000000 -1.221507
v 0.365058 0.000000 -1.362414
v 0.000001 0.000000 -1.410475
v -0.365057 0.000000 -1.362414
v -0.705237 0.000000 -1.221507
v -0.997356 0.000000 -0.997357
v -1.221507 0.000000 -0.705238
v -1.362414 0.000000 -0.365058
v -1.410475 0.000000 -0.000001
v -1.362414 0.000000 0.365057
v -1.221507 0.000000 0.705237
v -0.997357 0.000000 0.997356
v -0.705238 0.000000 1.221506
v -0.365059 0.000000 1.362414
vt 0.933013 0.750000
vt 0.933013 0.250000
vt 0.982963 0.370590
vt 1.000000 0.500000
vt 0.982963 0.629409
vt 0.500000 1.000000
vt 0.370590 0.982963
vt 0.250000 0.933013
vt 0.146447 0.853553
vt 0.066987 0.750000
vt 0.629410 0.982963
vt 0.853554 0.853553
vt 0.750000 0.933013
vt 0.066987 0.250000
vt 0.017037 0.629410
vt 0.000000 0.500000
vt 0.017037 0.370591
vt 0.500000 0.000000
vt 0.146447 0.146447
vt 0.250000 0.066987
vt 0.370590 0.017037
vt 0.629409 0.017037
vt 0.750000 0.066987
vt 0.853553 0.146446
vn 0.0000 1.0000 0.0000
s off
f 51/31/26 47/32/26 48/33/26 49/34/26 50/35/26
f 31/36/26 32/37/26 33/38/26 34/39/26 35/40/26
f 54/41/26 31/36/26 51/31/26 52/42/26 53/43/26
f 39/44/26 35/40/26 36/45/26 37/46/26 38/47/26
f 43/48/26 39/44/26 40/49/26 41/50/26 42/51/26
f 47/32/26 43/48/26 44/52/26 45/53/26 46/54/26
