# Blender v2.82 (sub 7) OBJ File: 'Fort Ticonderoga Class.blend'
# www.blender.org
mtllib Fort Ticonderoga Class Seperate.mtl
o Ship_Cylinder.001
v -1.097925 0.000000 -0.224800
v -1.097925 -0.127878 -0.171832
v -1.097925 0.127878 -0.171832
v -2.807306 0.127878 -0.171832
v -1.651418 -0.127878 -0.171832
v -1.651418 0.127878 -0.171832
v -1.651418 0.000000 -0.224800
v -1.865814 -0.127878 -0.171832
v -1.865814 0.127878 -0.171832
v -1.865814 0.000000 -0.224800
v -2.807306 -0.127878 -0.171832
v -2.807306 0.000000 -0.224800
v -1.097925 0.000000 0.224800
v -1.097925 -0.127878 0.171832
v -1.097925 0.127878 0.171832
v -1.097925 0.178730 0.000000
v -1.097925 -0.178730 0.000000
v -2.807306 0.127878 0.171832
v -1.651418 -0.178730 0.000000
v -1.651418 0.178730 0.000000
v -1.651418 -0.127878 0.171832
v -1.651418 0.127878 0.171832
v -1.651418 0.000000 0.224800
v -1.865814 -0.178730 0.000000
v -1.865814 -0.127878 0.171832
v -1.865814 0.178730 0.000000
v -1.865814 0.127878 0.171832
v -1.865814 0.000000 0.224800
v -2.807306 -0.127878 0.171832
v -2.807306 0.000000 0.224800
v -2.807306 -0.178730 0.000000
v -2.807306 0.178730 0.000000
vt 0.305963 0.250000
vt 0.305963 0.250000
vt 0.289767 0.301321
vt 0.289767 0.301321
vt 0.210233 0.301321
vt 0.210233 0.301321
vt 0.194038 0.250000
vt 0.194037 0.250000
vt 0.250000 0.317142
vt 0.250000 0.317142
vt 0.289767 0.301321
vt 0.289767 0.301321
vt 0.250000 0.317142
vt 0.250000 0.317142
vt 0.210233 0.301321
vt 0.210233 0.301321
vt 0.194037 0.250000
vt 0.194038 0.250000
vt 0.305963 0.250000
vt 0.305963 0.250000
vt 0.289767 0.301321
vt 0.289767 0.301321
vt 0.210233 0.301321
vt 0.210233 0.301321
vt 0.250000 0.317142
vt 0.250000 0.317142
vt 0.289767 0.301321
vt 0.250000 0.317142
vt 0.250000 0.317142
vt 0.289767 0.301321
vt 0.210233 0.301321
vt 0.210233 0.301321
vn -0.0000 -0.9589 -0.2838
vn 0.0000 0.9589 -0.2838
vn 0.0000 0.3827 -0.9239
vn -0.0000 -0.3827 -0.9239
vn -0.0000 -0.9589 0.2838
vn 0.0000 0.9589 0.2838
vn 0.0000 0.3827 0.9239
vn -0.0000 -0.3827 0.9239
usemtl None
s off
f 24/1/1 31/2/1 11/3/1 8/4/1
f 9/5/2 4/6/2 32/7/2 26/8/2
f 10/9/3 12/10/3 4/6/3 9/5/3
f 8/4/4 11/3/4 12/10/4 10/9/4
f 2/11/4 5/12/4 7/13/4 1/14/4
f 1/14/3 7/13/3 6/15/3 3/16/3
f 3/16/2 6/15/2 20/17/2 16/18/2
f 17/19/1 19/20/1 5/12/1 2/11/1
f 24/1/5 25/21/5 29/22/5 31/2/5
f 27/23/6 26/8/6 32/7/6 18/24/6
f 28/25/7 27/23/7 18/24/7 30/26/7
f 25/21/8 28/25/8 30/26/8 29/22/8
f 14/27/8 13/28/8 23/29/8 21/30/8
f 13/28/7 15/31/7 22/32/7 23/29/7
f 15/31/6 16/18/6 20/17/6 22/32/6
f 17/19/5 14/27/5 21/30/5 19/20/5
o Ship.001_Cylinder.004
v 1.456107 -0.000000 -0.258934
v 0.803555 -0.367789 -0.568199
v 0.803555 0.367788 -0.568199
v 0.942310 -0.000000 -0.803555
v -0.803555 -0.367788 -0.568199
v -0.803555 0.000000 -0.803555
v -0.803555 0.367788 -0.568199
v -0.803555 0.000000 -0.803555
v -1.097925 0.000000 -0.224800
v -1.097925 -0.127878 -0.171832
v -1.097925 0.127878 -0.171832
v 1.456107 -0.000000 0.258934
v 0.803555 -0.367789 0.568199
v 0.124796 -0.535942 0.000000
v 0.124796 0.535942 0.000000
v 0.803555 0.367788 0.568199
v 0.942310 -0.000000 0.803555
v -0.803555 -0.367788 0.568199
v -0.803555 0.000000 0.803555
v -0.803555 -0.535942 0.000000
v -0.803555 0.535942 0.000000
v -0.803555 0.367788 0.568199
v -0.803555 0.000000 0.803555
v -1.097925 0.000000 0.224800
v -1.097925 -0.127878 0.171832
v -1.097925 0.127878 0.171832
v -1.097925 0.178730 0.000000
v -1.097925 -0.178730 0.000000
v 1.456107 -0.000000 0.000000
v 0.803555 -0.367789 0.000000
v 0.803555 0.367788 0.000000
vt 1.000000 0.613689
vt 0.875000 0.500000
vt 0.875000 1.000000
vt 1.000000 1.000000
vt 0.750000 0.500000
vt 0.750000 1.000000
vt 0.250000 0.500000
vt 0.125000 0.500000
vt 0.125000 1.000000
vt 0.250000 1.000000
vt 0.000000 0.613689
vt 0.000000 1.000000
vt 0.000000 0.500000
vt 1.000000 0.500000
vt 0.250000 0.391335
vt 0.250000 0.391335
vt 0.152589 0.352134
vt 0.152589 0.352134
vt 0.117641 0.250000
vt 0.117641 0.250000
vt 0.382360 0.250000
vt 0.382360 0.250000
vt 0.347411 0.352134
vt 0.347411 0.352134
vt 0.919706 0.419706
vt 0.919706 0.250000
vt 0.580294 0.419706
vt 0.580294 0.250000
vt 0.750000 0.490000
vt 0.750000 0.250000
vt 1.000000 0.613689
vt 1.000000 1.000000
vt 0.875000 1.000000
vt 0.875000 0.500000
vt 0.125000 1.000000
vt 0.125000 0.500000
vt 0.000000 1.000000
vt 0.000000 0.613689
vt 0.000000 0.500000
vt 1.000000 0.500000
vt 0.250000 0.391335
vt 0.152589 0.352134
vt 0.152589 0.352134
vt 0.250000 0.391335
vt 0.347411 0.352134
vt 0.347411 0.352134
vt 0.919706 0.419706
vt 0.580294 0.419706
vt 0.750000 0.490000
vn -0.0000 -0.5390 -0.8423
vn -0.0000 -0.9589 -0.2838
vn 0.0000 0.9589 -0.2838
vn 0.0000 0.5390 -0.8423
vn 0.5921 0.5808 -0.5586
vn 0.5921 -0.5808 -0.5586
vn -0.8533 0.2622 -0.4507
vn -0.7584 0.6250 -0.1850
vn -0.7584 -0.6250 -0.1850
vn -0.8533 -0.2622 -0.4507
vn 0.2405 -0.9707 0.0000
vn 0.2405 0.9707 0.0000
vn 0.4910 -0.8712 0.0000
vn 0.4910 0.8712 -0.0000
vn -0.0000 -0.5390 0.8423
vn -0.0000 -0.9589 0.2838
vn 0.0000 0.9589 0.2838
vn 0.0000 0.5390 0.8423
vn 0.5921 0.5808 0.5586
vn 0.5921 -0.5808 0.5586
vn -0.8533 0.2622 0.4507
vn -0.7584 0.6250 0.1850
vn -0.7584 -0.6250 0.1850
vn -0.8533 -0.2622 0.4507
usemtl None
s off
f 36/33/9 34/34/9 37/35/9 38/36/9
f 34/34/10 46/37/10 52/38/10 37/35/10
f 47/39/11 35/40/11 39/41/11 53/42/11
f 35/40/12 36/43/12 38/44/12 39/41/12
f 33/45/13 36/43/13 35/40/13
f 33/46/14 34/34/14 36/33/14
f 40/47/15 41/48/15 43/49/15 39/50/15
f 39/50/16 43/49/16 59/51/16 53/52/16
f 52/53/17 60/54/17 42/55/17 37/56/17
f 37/56/18 42/55/18 41/48/18 40/47/18
f 46/37/19 34/57/19 62/58/19
f 35/59/20 47/39/20 63/60/20
f 33/61/21 61/62/21 62/58/21 34/57/21
f 35/59/22 63/60/22 61/62/22 33/61/22
f 49/63/23 51/64/23 50/65/23 45/66/23
f 45/66/24 50/65/24 52/38/24 46/37/24
f 47/39/25 53/42/25 54/67/25 48/68/25
f 48/68/26 54/67/26 51/69/26 49/70/26
f 44/71/27 48/68/27 49/70/27
f 44/72/28 49/63/28 45/66/28
f 55/73/29 54/74/29 58/75/29 56/76/29
f 54/74/30 53/52/30 59/51/30 58/75/30
f 52/53/31 50/77/31 57/78/31 60/54/31
f 50/77/32 55/73/32 56/76/32 57/78/32
f 46/37/19 62/58/19 45/79/19
f 48/80/20 63/60/20 47/39/20
f 44/81/21 45/79/21 62/58/21 61/62/21
f 48/80/22 44/81/22 61/62/22 63/60/22
l 38 40
l 51 55
o Ship.002_Cylinder.005
v -1.651418 -0.127878 -0.171832
v -1.651418 0.127878 -0.171832
v -1.651418 0.000000 -0.224800
v -1.865814 -0.127878 -0.171832
v -1.865814 0.127878 -0.171832
v -1.865814 0.000000 -0.224800
v -1.651418 -0.127878 -1.778942
v -1.865814 -0.127878 -1.778942
v -1.865814 0.127878 -1.778942
v -1.651418 0.127878 -1.778942
v -1.250600 0.293003 -1.778942
v -1.250600 0.293003 -2.204010
v -2.807306 0.293003 -2.204010
v -2.807306 0.293003 -1.778942
v -2.807306 -0.293002 -1.778942
v -2.807306 -0.293002 -2.204010
v -1.250600 -0.293002 -1.778942
v -1.250600 -0.293002 -2.204010
v -2.807306 0.179936 -2.317077
v -2.807306 -0.179935 -2.317077
v -1.250600 0.179935 -2.317077
v -1.250600 -0.179935 -2.317077
v -1.651418 -0.178730 0.000000
v -1.651418 0.178730 0.000000
v -1.651418 -0.127878 0.171832
v -1.651418 0.127878 0.171832
v -1.651418 0.000000 0.224800
v -1.865814 -0.178730 0.000000
v -1.865814 -0.127878 0.171832
v -1.865814 0.178730 0.000000
v -1.865814 0.127878 0.171832
v -1.865814 0.000000 0.224800
v -1.651418 -0.127878 1.778942
v -1.865814 -0.127878 1.778942
v -1.865814 0.127878 1.778942
v -1.651418 0.127878 1.778942
v -1.250600 0.293003 1.778942
v -1.250600 0.293003 2.204010
v -2.807306 0.293003 2.204010
v -2.807306 0.293003 1.778942
v -2.807306 -0.293002 1.778942
v -2.807306 -0.293002 2.204010
v -1.250600 -0.293002 1.778942
v -1.250600 -0.293002 2.204010
v -2.807306 0.179936 2.317077
v -2.807306 -0.179935 2.317077
v -1.250600 0.179935 2.317077
v -1.250600 -0.179935 2.317077
vt 0.210233 0.301321
vt 0.210233 0.301321
vt 0.194037 0.250000
vt 0.194037 0.250000
vt 0.305963 0.250000
vt 0.305963 0.250000
vt 0.289767 0.301321
vt 0.289767 0.301321
vt 0.250000 0.317142
vt 0.289768 0.301321
vt 0.210233 0.301321
vt 0.289767 0.301321
vt 0.250000 0.317142
vt 0.210233 0.301321
vt 0.289767 0.301321
vt 0.000000 0.000000
vt 0.210233 0.301321
vt 0.210233 0.301321
vt 0.210233 0.301321
vt 0.210233 0.301321
vt 0.000000 0.000000
vt 0.000000 0.000000
vt 0.000000 0.000000
vt 0.000000 0.000000
vt 0.289767 0.301321
vt 0.289767 0.301321
vt 0.289767 0.301321
vt 0.289767 0.301321
vt 0.289767 0.301321
vt 0.210233 0.301321
vt 0.210233 0.301321
vt 0.000000 0.000000
vt 0.000000 0.000000
vt 0.210233 0.301321
vt 0.210233 0.301321
vt 0.289767 0.301321
vt 0.289767 0.301321
vt 0.250000 0.317142
vt 0.210233 0.301321
vt 0.289768 0.301321
vt 0.289767 0.301321
vt 0.250000 0.317142
vt 0.210233 0.301321
vt 0.000000 0.000000
vt 0.289767 0.301321
vt 0.210233 0.301321
vt 0.210233 0.301321
vt 0.210233 0.301321
vt 0.210233 0.301321
vt 0.000000 0.000000
vt 0.000000 0.000000
vt 0.000000 0.000000
vt 0.000000 0.000000
vt 0.289767 0.301321
vt 0.289767 0.301321
vt 0.289767 0.301321
vt 0.289767 0.301321
vt 0.289767 0.301321
vt 0.210233 0.301321
vt 0.210233 0.301321
vt 0.000000 0.000000
vt 0.000000 0.000000
vn 0.0000 0.9589 -0.2838
vn -0.0000 -0.9589 -0.2838
vn 1.0000 -0.0000 0.0000
vn -0.0000 -1.0000 -0.0000
vn -1.0000 0.0000 0.0000
vn 0.0000 1.0000 0.0000
vn 0.0000 0.0000 1.0000
vn 0.0000 0.7071 -0.7071
vn 0.0000 -0.7071 -0.7071
vn 0.0000 0.0000 -1.0000
vn 0.0000 0.9589 0.2838
vn -0.0000 -0.9589 0.2838
vn 0.0000 0.7071 0.7071
vn -0.0000 -0.7071 0.7071
usemtl None
s off
f 65/82/33 68/83/33 93/84/33 87/85/33
f 86/86/34 91/87/34 67/88/34 64/89/34
f 66/90/35 64/89/35 70/91/35 73/92/35 65/82/35
f 67/88/36 71/93/36 70/91/36 64/89/36
f 69/94/37 68/83/37 72/95/37 71/93/37 67/88/37
f 65/82/38 73/92/38 72/95/38 68/83/38
f 70/91/39 71/93/39 78/96/39 80/97/39
f 72/95/39 73/92/39 74/98/39 77/99/39
f 76/100/38 77/99/38 74/98/38 75/101/38
f 82/102/40 76/103/40 75/104/40 84/105/40
f 79/106/36 81/107/36 80/108/36 78/96/36
f 85/109/41 81/107/41 79/106/41 83/110/41
f 82/111/42 84/112/42 85/109/42 83/110/42
f 72/95/39 77/99/39 78/113/39 71/93/39
f 83/110/37 79/106/37 78/113/37 77/99/37 76/103/37 82/111/37
f 74/114/39 73/92/39 70/91/39 80/97/39
f 74/114/35 80/97/35 81/107/35 85/109/35 84/112/35 75/104/35
f 89/115/43 87/85/43 93/84/43 94/116/43
f 86/86/44 88/117/44 92/118/44 91/87/44
f 90/119/35 89/115/35 99/120/35 96/121/35 88/117/35
f 92/118/36 88/117/36 96/121/36 97/122/36
f 95/123/37 92/118/37 97/122/37 98/124/37 94/116/37
f 89/115/38 94/116/38 98/124/38 99/120/38
f 96/121/42 106/125/42 104/126/42 97/122/42
f 98/124/42 103/127/42 100/128/42 99/120/42
f 102/129/38 101/130/38 100/128/38 103/127/38
f 108/131/45 110/132/45 101/133/45 102/134/45
f 105/135/36 104/126/36 106/136/36 107/137/36
f 111/138/46 109/139/46 105/135/46 107/137/46
f 108/140/39 109/139/39 111/138/39 110/141/39
f 98/124/42 97/122/42 104/142/42 103/127/42
f 109/139/37 108/140/37 102/134/37 103/127/37 104/142/37 105/135/37
f 100/143/42 106/125/42 96/121/42 99/120/42
f 100/143/35 101/133/35 110/141/35 111/138/35 107/137/35 106/125/35
o Ship.003_Cylinder.006
v -2.807306 0.127878 -0.171832
v -2.807306 -0.127878 -0.171832
v -2.807306 0.000000 -0.224800
v -3.048891 -0.317602 -0.842210
v -3.048891 0.000000 -1.101829
v -3.048891 0.317602 -0.842210
v -5.030465 -0.070840 -0.678194
v -5.030465 0.000000 -0.736101
v -5.030465 0.070841 -0.678194
v -4.956315 -0.317601 -0.842210
v -4.956315 0.000001 -1.101829
v -4.956315 0.317602 -0.842210
v -5.030465 -0.187746 -0.283161
v -4.984374 -0.187746 -0.283161
v -5.030465 0.187747 -0.283161
v -4.984374 0.187747 -0.283161
v -4.984374 -0.070840 -0.678194
v -4.984374 0.000001 -0.736101
v -4.984374 0.070841 -0.678194
v -2.807306 0.127878 0.171832
v -2.807306 -0.127878 0.171832
v -2.807306 0.000000 0.224800
v -2.807306 -0.178730 0.000000
v -2.807306 0.178730 0.000000
v -3.048891 -0.317602 0.842210
v -3.048891 0.000000 1.101829
v -3.048891 -0.566846 0.000000
v -3.048891 0.317602 0.842210
v -3.048891 0.566847 0.000000
v -5.030465 -0.070840 0.678194
v -5.030465 0.000000 0.736101
v -4.956315 -0.566846 0.000000
v -5.030465 0.070841 0.678194
v -4.956315 0.566847 0.000000
v -4.956315 -0.317601 0.842210
v -4.956315 0.000001 1.101829
v -4.956315 0.317602 0.842210
v -5.030465 -0.187746 0.283161
v -4.984374 -0.187746 0.283161
v -5.030465 0.187747 0.283161
v -4.984374 0.187747 0.283161
v -4.984374 -0.070840 0.678194
v -4.984374 0.000001 0.736101
v -4.984374 0.070841 0.678194
vt 0.250000 0.294856
vt 0.250000 0.294856
vt 0.241620 0.291327
vt 0.241620 0.291327
vt 0.210233 0.301321
vt 0.210233 0.301321
vt 0.194038 0.250000
vt 0.194038 0.250000
vt 0.250000 0.317142
vt 0.250000 0.317142
vt 0.210233 0.301321
vt 0.289767 0.301321
vt 0.289767 0.301321
vt 0.305963 0.250000
vt 0.305963 0.250000
vt 0.194038 0.250000
vt 0.250000 0.317142
vt 0.289767 0.301321
vt 0.305963 0.250000
vt 0.258380 0.291327
vt 0.269549 0.267255
vt 0.230451 0.267255
vt 0.258380 0.291327
vt 0.269549 0.267255
vt 0.230451 0.267255
vt 0.250000 0.294856
vt 0.241620 0.291327
vt 0.241620 0.291327
vt 0.250000 0.294856
vt 0.210233 0.301321
vt 0.210233 0.301321
vt 0.250000 0.317142
vt 0.210233 0.301321
vt 0.250000 0.317142
vt 0.289767 0.301321
vt 0.289767 0.301321
vt 0.250000 0.317142
vt 0.289767 0.301321
vt 0.258380 0.291327
vt 0.269549 0.267255
vt 0.230451 0.267255
vt 0.258380 0.291327
vt 0.230451 0.267255
vt 0.269549 0.267255
vn 0.0000 -0.6329 0.7742
vn 0.0000 0.9589 -0.2838
vn 0.9435 0.1903 -0.2713
vn 0.9435 -0.1903 -0.2713
vn 0.8388 -0.5221 -0.1545
vn 0.8388 0.5221 -0.1545
vn 0.0000 0.6329 -0.7742
vn -0.0000 -0.6329 -0.7742
vn -0.0000 -0.9589 -0.2838
vn -0.9674 -0.1603 -0.1961
vn -0.9674 -0.2429 -0.0719
vn -0.9674 0.1603 -0.1961
vn -0.9674 0.2429 -0.0719
vn -0.9674 0.0000 0.2533
vn -1.0000 0.0000 0.0000
vn -0.0000 0.6329 0.7742
vn 0.0000 0.0000 -1.0000
vn 0.0000 -0.9589 0.2838
vn -0.0000 0.9589 0.2838
vn 0.9435 0.1903 0.2713
vn 0.9435 -0.1903 0.2713
vn 0.8388 -0.5221 0.1545
vn 0.8388 0.5221 0.1545
vn -0.9674 -0.1603 0.1961
vn -0.9674 -0.2429 0.0719
vn -0.9674 0.1603 0.1961
vn -0.9674 0.2429 0.0719
vn -0.9674 0.0000 -0.2533
vn 0.0000 0.0000 1.0000
usemtl None
s off
f 119/144/47 129/145/47 130/146/47 120/147/47
f 117/148/48 123/149/48 145/150/48 140/151/48
f 114/152/49 116/153/49 117/148/49 112/154/49
f 113/155/50 115/156/50 116/153/50 114/152/50
f 134/157/51 138/158/51 115/156/51 113/155/51
f 112/154/52 117/148/52 140/151/52 135/159/52
f 116/153/53 122/160/53 123/149/53 117/148/53
f 115/156/54 121/161/54 122/160/54 116/153/54
f 138/158/55 143/162/55 121/161/55 115/156/55
f 119/144/56 122/160/56 121/161/56 118/163/56
f 118/163/57 121/161/57 143/162/57 124/164/57
f 120/147/58 123/149/58 122/160/58 119/144/58
f 126/165/59 145/150/59 123/149/59 120/147/59
f 124/164/60 143/162/60 145/150/60 126/165/60
f 128/166/61 125/167/61 127/168/61 130/146/61 129/145/61
f 118/163/62 128/166/62 129/145/62 119/144/62
f 126/165/63 127/168/63 125/167/63 124/164/63
f 120/147/64 130/146/64 127/168/64 126/165/64
f 124/164/65 125/167/65 128/166/65 118/163/65
f 142/169/54 144/170/54 155/171/54 154/172/54
f 139/173/65 140/151/65 145/150/65 148/174/65
f 133/175/66 131/176/66 139/173/66 137/177/66
f 132/178/67 133/175/67 137/177/67 136/179/67
f 134/157/68 132/178/68 136/179/68 138/158/68
f 131/176/69 135/159/69 140/151/69 139/173/69
f 137/177/62 139/173/62 148/174/62 147/180/62
f 136/179/47 137/177/47 147/180/47 146/181/47
f 138/158/64 136/179/64 146/181/64 143/162/64
f 142/169/70 141/182/70 146/181/70 147/180/70
f 141/182/71 149/183/71 143/162/71 146/181/71
f 144/170/72 142/169/72 147/180/72 148/174/72
f 151/184/73 144/170/73 148/174/73 145/150/73
f 149/183/74 151/184/74 145/150/74 143/162/74
f 153/185/61 154/172/61 155/171/61 152/186/61 150/187/61
f 141/182/53 142/169/53 154/172/53 153/185/53
f 151/184/75 149/183/75 150/187/75 152/186/75
f 144/170/55 151/184/55 152/186/55 155/171/55
f 149/183/48 141/182/48 153/185/48 150/187/48
