# Blender v2.82 (sub 7) OBJ File: 'Fort Ticonderoga Class.blend'
# www.blender.org
mtllib Fort Ticonderoga Class Spine.mtl
o Core_Cylinder.001
v -1.095017 0.000000 -0.224205
v -1.095017 -0.127539 -0.171377
v -1.095017 0.127539 -0.171377
v -2.799872 0.127539 -0.171377
v -1.647044 -0.127539 -0.171377
v -1.647044 0.127539 -0.171377
v -1.647044 0.000000 -0.224205
v -1.860873 -0.127539 -0.171377
v -1.860873 0.127539 -0.171377
v -1.860873 0.000000 -0.224205
v -2.799872 -0.127539 -0.171377
v -2.799872 0.000000 -0.224205
v -1.095017 0.000000 0.224205
v -1.095017 -0.127539 0.171377
v -1.095017 0.127539 0.171377
v -1.095017 0.178257 0.000000
v -1.095017 -0.178257 0.000000
v -2.799872 0.127539 0.171377
v -1.647044 -0.178257 0.000000
v -1.647044 0.178257 0.000000
v -1.647044 -0.127539 0.171377
v -1.647044 0.127539 0.171377
v -1.647044 0.000000 0.224205
v -1.860873 -0.178257 0.000000
v -1.860873 -0.127539 0.171377
v -1.860873 0.178257 0.000000
v -1.860873 0.127539 0.171377
v -1.860873 0.000000 0.224205
v -2.799872 -0.127539 0.171377
v -2.799872 0.000000 0.224205
v -2.799872 -0.178257 0.000000
v -2.799872 0.178257 0.000000
vt 0.305963 0.250000
vt 0.305963 0.250000
vt 0.289767 0.301321
vt 0.289767 0.301321
vt 0.210233 0.301321
vt 0.210233 0.301321
vt 0.194038 0.250000
vt 0.194037 0.250000
vt 0.250000 0.317142
vt 0.250000 0.317142
vt 0.289767 0.301321
vt 0.289767 0.301321
vt 0.250000 0.317142
vt 0.250000 0.317142
vt 0.210233 0.301321
vt 0.210233 0.301321
vt 0.194037 0.250000
vt 0.194038 0.250000
vt 0.305963 0.250000
vt 0.305963 0.250000
vt 0.289767 0.301321
vt 0.289767 0.301321
vt 0.210233 0.301321
vt 0.210233 0.301321
vt 0.250000 0.317142
vt 0.250000 0.317142
vt 0.289767 0.301321
vt 0.250000 0.317142
vt 0.250000 0.317142
vt 0.289767 0.301321
vt 0.210233 0.301321
vt 0.210233 0.301321
vn -0.0000 -0.9589 -0.2838
vn 0.0000 0.9589 -0.2838
vn 0.0000 0.3827 -0.9239
vn -0.0000 -0.3827 -0.9239
vn -0.0000 -0.9589 0.2838
vn 0.0000 0.9589 0.2838
vn 0.0000 0.3827 0.9239
vn -0.0000 -0.3827 0.9239
usemtl None
s off
f 24/1/1 31/2/1 11/3/1 8/4/1
f 9/5/2 4/6/2 32/7/2 26/8/2
f 10/9/3 12/10/3 4/6/3 9/5/3
f 8/4/4 11/3/4 12/10/4 10/9/4
f 2/11/4 5/12/4 7/13/4 1/14/4
f 1/14/3 7/13/3 6/15/3 3/16/3
f 3/16/2 6/15/2 20/17/2 16/18/2
f 17/19/1 19/20/1 5/12/1 2/11/1
f 24/1/5 25/21/5 29/22/5 31/2/5
f 27/23/6 26/8/6 32/7/6 18/24/6
f 28/25/7 27/23/7 18/24/7 30/26/7
f 25/21/8 28/25/8 30/26/8 29/22/8
f 14/27/8 13/28/8 23/29/8 21/30/8
f 13/28/7 15/31/7 22/32/7 23/29/7
f 15/31/6 16/18/6 20/17/6 22/32/6
f 17/19/5 14/27/5 21/30/5 19/20/5
