# Blender v2.82 (sub 7) OBJ File: 'Fort Ticonderoga Class.blend'
# www.blender.org
mtllib Fort Ticonderoga Class Drive.mtl
o Drive_Cylinder.003
v -3.040817 -0.316761 -0.839979
v -3.040817 0.000000 -1.098911
v -3.040817 0.316761 -0.839979
v -5.017143 -0.070652 -0.676398
v -5.017143 0.000000 -0.734152
v -5.017143 0.070653 -0.676398
v -4.943189 -0.316760 -0.839979
v -4.943189 0.000001 -1.098911
v -4.943189 0.316761 -0.839979
v -5.017143 -0.187249 -0.282411
v -4.971174 -0.187249 -0.282411
v -5.017143 0.187250 -0.282411
v -4.971174 0.187250 -0.282411
v -4.971174 -0.070652 -0.676398
v -4.971174 0.000001 -0.734152
v -4.971174 0.070653 -0.676398
v -2.799872 0.127539 -0.138395
v -2.799872 -0.127539 -0.138395
v -2.799872 0.000000 -0.191224
v -3.040817 -0.316761 0.839979
v -3.040817 0.000000 1.098911
v -3.040817 -0.565345 0.000000
v -3.040817 0.316761 0.839979
v -3.040817 0.565346 0.000000
v -5.017143 -0.070652 0.676398
v -5.017143 0.000000 0.734152
v -4.943189 -0.565345 0.000000
v -5.017143 0.070653 0.676398
v -4.943189 0.565346 0.000000
v -4.943189 -0.316760 0.839979
v -4.943189 0.000001 1.098911
v -4.943189 0.316761 0.839979
v -5.017143 -0.187249 0.282411
v -4.971174 -0.187249 0.282411
v -5.017143 0.187250 0.282411
v -4.971174 0.187250 0.282411
v -4.971174 -0.070652 0.676398
v -4.971174 0.000001 0.734152
v -4.971174 0.070653 0.676398
v -2.799872 0.127539 0.138395
v -2.799872 -0.127539 0.138395
v -2.799872 0.000000 0.191224
v -2.799872 -0.178257 0.000000
v -2.799872 0.178257 0.000000
vt 0.250000 0.294856
vt 0.250000 0.294856
vt 0.241620 0.291327
vt 0.241620 0.291327
vt 0.210233 0.301321
vt 0.210233 0.301321
vt 0.194038 0.250000
vt 0.194038 0.250000
vt 0.250000 0.317142
vt 0.250000 0.317142
vt 0.210233 0.301321
vt 0.289767 0.301321
vt 0.289767 0.301321
vt 0.305963 0.250000
vt 0.305963 0.250000
vt 0.194038 0.250000
vt 0.250000 0.317142
vt 0.289767 0.301321
vt 0.305963 0.250000
vt 0.258380 0.291327
vt 0.269549 0.267255
vt 0.230451 0.267255
vt 0.258380 0.291327
vt 0.269549 0.267255
vt 0.230451 0.267255
vt 0.250000 0.294856
vt 0.241620 0.291327
vt 0.241620 0.291327
vt 0.250000 0.294856
vt 0.210233 0.301321
vt 0.210233 0.301321
vt 0.250000 0.317142
vt 0.210233 0.301321
vt 0.250000 0.317142
vt 0.289767 0.301321
vt 0.289767 0.301321
vt 0.250000 0.317142
vt 0.289767 0.301321
vt 0.258380 0.291327
vt 0.269549 0.267255
vt 0.230451 0.267255
vt 0.258380 0.291327
vt 0.230451 0.267255
vt 0.269549 0.267255
vn 0.0000 -0.6329 0.7742
vn 0.0000 0.9589 -0.2838
vn 0.9474 0.1839 -0.2621
vn 0.9474 -0.1839 -0.2621
vn 0.8434 -0.5138 -0.1572
vn 0.8434 0.5138 -0.1572
vn 0.0000 0.6329 -0.7742
vn -0.0000 -0.6329 -0.7742
vn -0.0000 -0.9589 -0.2838
vn -0.9674 -0.1603 -0.1961
vn -0.9674 -0.2429 -0.0719
vn -0.9674 0.1603 -0.1961
vn -0.9674 0.2429 -0.0719
vn -0.9674 0.0000 0.2533
vn -1.0000 0.0000 0.0000
vn -0.0000 0.6329 0.7742
vn 0.0000 0.0000 -1.0000
vn 0.0000 -0.9589 0.2838
vn -0.0000 0.9589 0.2838
vn 0.9474 0.1839 0.2621
vn 0.9474 -0.1839 0.2621
vn 0.8434 -0.5138 0.1572
vn 0.8434 0.5138 0.1572
vn -0.9674 -0.1603 0.1961
vn -0.9674 -0.2429 0.0719
vn -0.9674 0.1603 0.1961
vn -0.9674 0.2429 0.0719
vn -0.9674 0.0000 -0.2533
vn 0.0000 0.0000 1.0000
usemtl None
s off
f 5/1/1 15/2/1 16/3/1 6/4/1
f 3/5/2 9/6/2 29/7/2 24/8/2
f 19/9/3 2/10/3 3/5/3 17/11/3
f 18/12/4 1/13/4 2/10/4 19/9/4
f 43/14/5 22/15/5 1/13/5 18/12/5
f 17/11/6 3/5/6 24/8/6 44/16/6
f 2/10/7 8/17/7 9/6/7 3/5/7
f 1/13/8 7/18/8 8/17/8 2/10/8
f 22/15/9 27/19/9 7/18/9 1/13/9
f 5/1/10 8/17/10 7/18/10 4/20/10
f 4/20/11 7/18/11 27/19/11 10/21/11
f 6/4/12 9/6/12 8/17/12 5/1/12
f 12/22/13 29/7/13 9/6/13 6/4/13
f 10/21/14 27/19/14 29/7/14 12/22/14
f 14/23/15 11/24/15 13/25/15 16/3/15 15/2/15
f 4/20/16 14/23/16 15/2/16 5/1/16
f 12/22/17 13/25/17 11/24/17 10/21/17
f 6/4/18 16/3/18 13/25/18 12/22/18
f 10/21/19 11/24/19 14/23/19 4/20/19
f 26/26/8 28/27/8 39/28/8 38/29/8
f 23/30/19 24/8/19 29/7/19 32/31/19
f 42/32/20 40/33/20 23/30/20 21/34/20
f 41/35/21 42/32/21 21/34/21 20/36/21
f 43/14/22 41/35/22 20/36/22 22/15/22
f 40/33/23 44/16/23 24/8/23 23/30/23
f 21/34/16 23/30/16 32/31/16 31/37/16
f 20/36/1 21/34/1 31/37/1 30/38/1
f 22/15/18 20/36/18 30/38/18 27/19/18
f 26/26/24 25/39/24 30/38/24 31/37/24
f 25/39/25 33/40/25 27/19/25 30/38/25
f 28/27/26 26/26/26 31/37/26 32/31/26
f 35/41/27 28/27/27 32/31/27 29/7/27
f 33/40/28 35/41/28 29/7/28 27/19/28
f 37/42/15 38/29/15 39/28/15 36/43/15 34/44/15
f 25/39/7 26/26/7 38/29/7 37/42/7
f 35/41/29 33/40/29 34/44/29 36/43/29
f 28/27/9 35/41/9 36/43/9 39/28/9
f 33/40/2 25/39/2 37/42/2 34/44/2
o PDC2_Icosphere.001
v -4.716792 0.519316 0.003255
v -4.749177 0.549657 -0.024934
v -4.699669 0.542093 -0.040926
v -4.668855 0.540842 0.001652
v -4.699319 0.547632 0.043958
v -4.748960 0.553080 0.027527
v -4.721253 0.589936 -0.043958
v -4.671612 0.584488 -0.027527
v -4.671396 0.587911 0.024934
v -4.720903 0.595474 0.040926
v -4.751717 0.596725 -0.001652
v -4.703780 0.618252 -0.003255
v -4.707870 0.524019 -0.022142
v -4.736969 0.528465 -0.012743
v -4.726904 0.541853 -0.038711
v -4.755877 0.548311 0.001524
v -4.736842 0.530477 0.018093
v -4.689758 0.523284 0.002884
v -4.679693 0.536672 -0.023084
v -4.707664 0.527275 0.027751
v -4.679487 0.539927 0.026809
v -4.726572 0.547121 0.042018
v -4.757498 0.573965 -0.015627
v -4.757371 0.575977 0.015208
v -4.710492 0.565528 -0.049893
v -4.739592 0.569974 -0.040494
v -4.663201 0.561591 -0.015208
v -4.681314 0.562326 -0.040235
v -4.680981 0.567594 0.040494
v -4.663074 0.563603 0.015627
v -4.739259 0.575241 0.040235
v -4.710081 0.572039 0.049893
v -4.741085 0.597640 -0.026809
v -4.694001 0.590447 -0.042018
v -4.664695 0.589257 -0.001524
v -4.693668 0.595715 0.038711
v -4.740880 0.600896 0.023084
v -4.712908 0.610293 -0.027751
v -4.730814 0.614284 -0.002884
v -4.683730 0.607091 -0.018093
v -4.683603 0.609103 0.012743
v -4.712703 0.613549 0.022142
v -4.754544 0.586351 0.006778
v -4.754608 0.585345 -0.008640
v -4.757434 0.574971 -0.000209
v -4.838117 0.596304 -0.009010
v -4.838053 0.597310 0.006407
v -4.840943 0.585930 -0.000580
vt 0.818181 0.000000
vt 0.772726 0.078731
vt 0.863635 0.078731
vt 0.727272 0.157461
vt 0.681818 0.078731
vt 0.636363 0.157461
vt 0.090909 0.000000
vt 0.045454 0.078731
vt 0.136363 0.078731
vt 0.272727 0.000000
vt 0.227273 0.078731
vt 0.318182 0.078731
vt 0.454545 0.000000
vt 0.409090 0.078731
vt 0.500000 0.078731
vt 0.681818 0.236191
vt 0.909090 0.157461
vt 0.818181 0.157461
vt 0.863635 0.236191
vt 0.181818 0.157461
vt 0.090909 0.157461
vt 0.136363 0.236191
vt 0.363636 0.157461
vt 0.272727 0.157461
vt 0.318182 0.236191
vt 0.545454 0.157461
vt 0.454545 0.157461
vt 0.500000 0.236191
vt 0.772726 0.236191
vt 0.954545 0.236191
vt 0.227273 0.236191
vt 0.409090 0.236191
vt 0.590909 0.236191
vt 0.818181 0.314921
vt 0.727272 0.314921
vt 0.772726 0.393651
vt 1.000000 0.314921
vt 0.909091 0.314921
vt 0.954545 0.393651
vt 0.272727 0.314921
vt 0.181818 0.314921
vt 0.227273 0.393651
vt 0.454545 0.314921
vt 0.363636 0.314921
vt 0.409090 0.393651
vt 0.636363 0.314921
vt 0.545454 0.314921
vt 0.590909 0.393651
vt 0.500000 0.393651
vt 0.545454 0.472382
vt 0.318182 0.393651
vt 0.363636 0.472382
vt 0.136363 0.393651
vt 0.181818 0.472382
vt 0.090909 0.314921
vt 0.863635 0.393651
vt 0.909090 0.472382
vt 0.681818 0.393651
vt 0.727272 0.472382
vt 0.613636 0.275556
vt 0.659090 0.275556
vt 0.045454 0.236191
vt 0.000000 0.157461
vt 0.636363 0.236191
vt 0.590909 0.078731
vt 0.636363 0.000000
vt 0.613636 0.275556
vt 0.636363 0.236191
vt 0.659090 0.275556
vn -0.2256 -0.9407 -0.2534
vn -0.7814 -0.5810 -0.2275
vn 0.1422 -0.9810 -0.1317
vn 0.1438 -0.9557 0.2569
vn -0.2230 -0.8997 0.3754
vn -0.9414 -0.2265 -0.2499
vn -0.0714 -0.3851 -0.9201
vn 0.8378 -0.4632 -0.2890
vn 0.5298 -0.3529 0.7712
vn -0.5698 -0.2067 0.7954
vn -0.8145 -0.0578 -0.5772
vn 0.2837 -0.2256 -0.9320
vn 0.9673 -0.2534 0.0126
vn 0.2915 -0.1027 0.9510
vn -0.8097 0.0181 0.5865
vn -0.3220 0.6669 -0.6720
vn 0.5510 0.5554 -0.6229
vn 0.7815 0.5810 0.2275
vn 0.0510 0.7084 0.7039
vn -0.6310 0.7615 0.1481
vn -0.1422 0.9810 0.1317
vn -0.3821 0.8733 0.3022
vn -0.3168 0.7488 0.5822
vn 0.2256 0.9407 0.2535
vn 0.2918 0.7994 0.5252
vn 0.5558 0.6313 0.5409
vn 0.4513 0.8904 -0.0600
vn 0.7053 0.7072 -0.0490
vn 0.7793 0.5461 -0.3075
vn 0.2230 0.8997 -0.3754
vn 0.2870 0.7242 -0.6270
vn 0.0448 0.6109 -0.7904
vn -0.1438 0.9557 -0.2569
vn -0.3850 0.8269 -0.4100
vn -0.6326 0.7362 -0.2406
vn -0.8378 0.4632 0.2890
vn -0.7611 0.3266 0.5604
vn -0.5236 0.4504 0.7231
vn 0.0714 0.3851 0.9201
vn 0.3292 0.2069 0.9213
vn 0.5762 0.3080 0.7571
vn 0.9414 0.2265 0.2499
vn 0.9983 0.0578 -0.0079
vn 0.9392 0.1917 -0.2850
vn 0.5698 0.2066 -0.7954
vn 0.3215 0.0853 -0.9431
vn 0.0636 0.2622 -0.9629
vn -0.5298 0.3529 -0.7712
vn -0.7659 0.2514 -0.5918
vn -0.8404 0.4221 -0.3398
vn -0.2837 0.2256 0.9320
vn -0.3215 -0.0853 0.9431
vn -0.0636 -0.2622 0.9629
vn 0.8145 0.0578 0.5772
vn 0.7659 -0.2514 0.5918
vn 0.8404 -0.4221 0.3398
vn 0.8097 -0.0181 -0.5865
vn 0.7611 -0.3266 -0.5604
vn 0.5236 -0.4504 -0.7231
vn -0.2915 0.1027 -0.9510
vn -0.3292 -0.2069 -0.9213
vn -0.5762 -0.3080 -0.7571
vn -0.9673 0.2534 -0.0126
vn -0.9983 -0.0578 0.0079
vn -0.9392 -0.1917 0.2850
vn -0.5510 -0.5554 0.6229
vn -0.2870 -0.7242 0.6270
vn -0.0448 -0.6109 0.7904
vn 0.3220 -0.6669 0.6720
vn 0.3850 -0.8269 0.4100
vn 0.6326 -0.7362 0.2406
vn 0.6310 -0.7615 -0.1481
vn 0.3821 -0.8733 -0.3022
vn 0.3168 -0.7488 -0.5822
vn -0.7793 -0.5461 0.3075
vn -0.7053 -0.7072 0.0490
vn -0.4513 -0.8904 0.0600
vn -0.0510 -0.7084 -0.7039
vn -0.2918 -0.7994 -0.5252
vn -0.5558 -0.6313 -0.5409
vn -0.0706 -0.5089 0.8580
vn -0.9673 0.2533 -0.0126
vn -0.9673 0.2534 -0.0125
vn -0.0774 -0.6160 -0.7840
vn 0.1301 0.9894 -0.0651
usemtl None
s off
f 45/45/30 58/46/30 57/47/30
f 46/48/31 58/49/31 60/50/31
f 45/51/32 57/52/32 62/53/32
f 45/54/33 62/55/33 64/56/33
f 45/57/34 64/58/34 61/59/34
f 46/48/35 60/50/35 67/60/35
f 47/61/36 59/62/36 69/63/36
f 48/64/37 63/65/37 71/66/37
f 49/67/38 65/68/38 73/69/38
f 50/70/39 66/71/39 75/72/39
f 46/48/40 67/60/40 70/73/40
f 47/61/41 69/63/41 72/74/41
f 48/64/42 71/66/42 74/75/42
f 49/67/43 73/69/43 76/76/43
f 50/70/44 75/72/44 68/77/44
f 51/78/45 77/79/45 82/80/45
f 52/81/46 78/82/46 84/83/46
f 53/84/47 79/85/47 85/86/47
f 54/87/48 80/88/48 86/89/48
f 55/90/49 81/91/49 83/92/49
f 83/92/50 86/93/50 56/94/50
f 83/92/51 81/91/51 86/93/51
f 81/91/52 54/87/52 86/93/52
f 86/89/53 85/95/53 56/96/53
f 86/89/54 80/88/54 85/95/54
f 80/88/55 53/84/55 85/95/55
f 85/86/56 84/97/56 56/98/56
f 85/86/57 79/85/57 84/97/57
f 79/85/58 52/99/58 84/97/58
f 84/83/59 82/100/59 56/101/59
f 84/83/60 78/82/60 82/100/60
f 78/82/61 51/78/61 82/100/61
f 82/80/62 83/102/62 56/103/62
f 82/80/63 77/79/63 83/102/63
f 77/79/64 55/90/64 83/102/64
f 68/77/65 81/91/65 55/90/65 87/104/65
f 68/77/66 75/72/66 81/91/66
f 75/72/67 54/87/67 81/91/67
f 76/76/68 80/88/68 54/87/68
f 76/76/69 73/69/69 80/88/69
f 73/69/70 53/84/70 80/88/70
f 74/75/71 79/85/71 53/84/71
f 74/75/72 71/66/72 79/85/72
f 71/66/73 52/99/73 79/85/73
f 72/74/74 78/82/74 52/81/74
f 72/74/75 69/63/75 78/82/75
f 69/63/76 51/78/76 78/82/76
f 70/73/77 77/79/77 51/78/77
f 70/73/78 67/60/78 77/79/78
f 67/60/79 88/105/79 55/90/79 77/79/79
f 75/72/80 76/76/80 54/87/80
f 75/72/81 66/71/81 76/76/81
f 66/71/82 49/67/82 76/76/82
f 73/69/83 74/75/83 53/84/83
f 73/69/84 65/68/84 74/75/84
f 65/68/85 48/64/85 74/75/85
f 71/66/86 72/106/86 52/99/86
f 71/66/87 63/65/87 72/106/87
f 63/65/88 47/107/88 72/106/88
f 69/63/89 70/73/89 51/78/89
f 69/63/90 59/62/90 70/73/90
f 59/62/91 46/48/91 70/73/91
f 67/60/92 89/108/92 88/105/92
f 67/60/93 60/50/93 68/77/93 89/108/93
f 60/50/94 50/70/94 68/77/94
f 61/59/95 66/71/95 50/70/95
f 61/59/96 64/58/96 66/71/96
f 64/58/97 49/67/97 66/71/97
f 64/56/98 65/68/98 49/67/98
f 64/56/99 62/55/99 65/68/99
f 62/55/100 48/64/100 65/68/100
f 62/53/101 63/65/101 48/64/101
f 62/53/102 57/52/102 63/65/102
f 57/52/103 47/107/103 63/65/103
f 60/50/104 61/109/104 50/70/104
f 60/50/105 58/49/105 61/109/105
f 58/49/106 45/110/106 61/109/106
f 57/47/107 59/62/107 47/61/107
f 57/47/108 58/46/108 59/62/108
f 58/46/109 46/48/109 59/62/109
f 88/105/92 87/104/92 55/90/92
f 89/108/110 87/104/110 91/111/110 92/112/110
f 89/108/111 68/77/111 87/104/111
f 90/113/112 92/112/112 91/111/112
f 88/105/113 89/108/113 92/112/113 90/113/113
f 87/104/114 88/105/114 90/113/114 91/111/114
