# Blender v2.82 (sub 7) OBJ File: 'Fort Ticonderoga Class.blend'
# www.blender.org
mtllib Fort Ticonderoga Class Head.mtl.mtl
o Head_Cylinder.002
v 1.452251 -0.000000 -0.258248
v 0.801427 -0.264276 -0.342838
v 0.573526 0.366814 -0.322890
v 0.663979 -0.000000 -0.651983
v -0.801427 -0.255714 -0.566694
v -0.801427 0.000000 -0.702486
v -0.801427 0.366815 -0.566694
v -1.095017 0.000000 -0.191224
v -1.095017 -0.127539 -0.138395
v -1.095017 0.127539 -0.138395
v 1.090645 0.206939 -0.297483
v 1.157759 0.168531 -0.290201
v -1.095017 -0.127539 -0.138395
v 1.028178 0.206939 -0.297483
v 1.117581 0.168531 -0.290201
v 0.756670 0.183407 -0.562158
v 1.452251 -0.000000 0.258248
v 0.801427 -0.264276 0.342838
v 0.124466 -0.437513 0.000000
v 0.010521 0.472858 0.000000
v 0.573526 0.366814 0.322890
v 0.663979 -0.000000 0.651983
v -0.801427 -0.255714 0.566694
v -0.801427 0.000000 0.702486
v -0.801427 -0.439814 0.000000
v -0.801427 0.472858 0.000000
v -0.801427 0.366815 0.566694
v -1.095017 0.000000 0.191224
v 1.450744 0.000849 0.000000
v 0.801427 -0.366815 0.000000
v 1.102159 0.197317 0.000000
v -1.095017 -0.127539 0.138395
v -1.095017 0.127539 0.138395
v -1.095017 0.178257 0.000000
v -1.095017 -0.178257 0.000000
v 1.090645 0.206939 0.297483
v 1.157759 0.168531 0.290201
v 0.801427 0.366814 0.000000
v -1.095017 -0.127539 0.138395
v 1.182692 0.151928 0.000000
v 1.028178 0.206939 0.297483
v 1.061981 0.197317 0.000000
v 1.117581 0.168531 0.290201
v 1.142514 0.151928 0.000000
v 0.756670 0.183407 0.562158
vt 1.000000 0.613689
vt 0.875000 0.500000
vt 0.875000 1.000000
vt 1.000000 1.000000
vt 0.750000 0.500000
vt 0.750000 1.000000
vt 0.250000 0.500000
vt 0.125000 0.500000
vt 0.125000 1.000000
vt 0.250000 1.000000
vt 0.062500 0.556844
vt 0.000000 0.613689
vt 0.000000 1.000000
vt 1.000000 0.500000
vt 0.250000 0.391335
vt 0.250000 0.391335
vt 0.152589 0.352134
vt 0.152589 0.352134
vt 0.117641 0.250000
vt 0.117641 0.250000
vt 0.382360 0.250000
vt 0.382360 0.250000
vt 0.347411 0.352134
vt 0.347411 0.352134
vt 0.919706 0.419706
vt 0.919706 0.250000
vt 0.000000 0.000000
vt 0.750000 0.490000
vt 0.746748 0.248916
vt 0.071785 0.500000
vt 0.000000 0.000000
vt 0.058462 0.500000
vt 0.058462 0.500000
vt 0.171216 0.057072
vt 0.171216 0.057072
vt 0.000000 0.500000
vt 0.071785 0.500000
vt 0.000000 0.000000
vt 1.000000 0.613689
vt 1.000000 1.000000
vt 0.875000 1.000000
vt 0.875000 0.500000
vt 0.125000 1.000000
vt 0.125000 0.500000
vt 0.000000 1.000000
vt 0.000000 0.613689
vt 0.062500 0.556844
vt 1.000000 0.500000
vt 0.250000 0.391335
vt 0.152589 0.352134
vt 0.152589 0.352134
vt 0.250000 0.391335
vt 0.347411 0.352134
vt 0.347411 0.352134
vt 0.919706 0.419706
vt 0.750000 0.490000
vt 0.071785 0.500000
vt 0.058462 0.500000
vt 0.058462 0.500000
vt 0.000000 0.500000
vt 0.071785 0.500000
vn 0.0668 -0.6384 -0.7668
vn 0.0284 -0.9374 -0.3471
vn 0.0242 0.9758 -0.2173
vn 0.0616 0.5451 -0.8361
vn 0.3465 -0.6313 -0.6938
vn -0.8538 0.1856 -0.4863
vn -0.7228 0.6746 -0.1500
vn -0.6521 -0.7193 -0.2395
vn -0.8374 -0.2414 -0.4904
vn 0.0996 -0.9533 -0.2851
vn 0.1323 0.9868 -0.0934
vn 0.4401 -0.8855 -0.1487
vn 0.2982 0.9310 -0.2105
vn 0.4910 0.8711 0.0092
vn 0.0000 0.9984 0.0571
vn 0.4938 0.8696 0.0039
vn 0.4424 0.8968 -0.0042
vn 0.0000 0.1863 0.9825
vn -0.0000 -0.9995 -0.0323
vn 0.2853 0.8536 -0.4359
vn 0.4539 0.4149 -0.7885
vn 0.0668 -0.6384 0.7668
vn 0.0284 -0.9374 0.3471
vn 0.0242 0.9758 0.2173
vn 0.0616 0.5451 0.8361
vn 0.3465 -0.6313 0.6938
vn -0.8538 0.1856 0.4863
vn -0.7228 0.6746 0.1500
vn -0.6521 -0.7193 0.2395
vn -0.8374 -0.2414 0.4904
vn 0.0996 -0.9533 0.2851
vn 0.1323 0.9868 0.0934
vn 0.4401 -0.8855 0.1487
vn 0.2982 0.9310 0.2105
vn 0.4910 0.8711 -0.0092
vn 0.0000 0.9984 -0.0571
vn 0.4938 0.8696 -0.0039
vn 0.4424 0.8968 0.0042
vn 0.0000 0.1863 -0.9825
vn -0.0000 -0.9995 0.0323
vn 0.2853 0.8536 0.4359
vn 0.4539 0.4149 0.7885
usemtl None
s off
f 4/1/1 2/2/1 5/3/1 6/4/1
f 2/2/2 19/5/2 25/6/2 5/3/2
f 20/7/3 3/8/3 7/9/3 26/10/3
f 3/8/4 16/11/4 4/12/4 6/13/4 7/9/4
f 1/14/5 2/2/5 4/1/5
f 6/15/6 8/16/6 10/17/6 7/18/6
f 7/18/7 10/17/7 34/19/7 26/20/7
f 25/21/8 35/22/8 9/23/8 5/24/8
f 5/24/9 9/23/9 8/16/9 6/15/9
f 19/5/10 2/25/10 30/26/10
f 20/7/11 38/27/11 3/8/11
f 1/28/12 29/29/12 30/26/12 2/25/12
f 11/30/13 3/8/13 38/27/13
f 38/27/14 31/31/14 11/30/14
f 12/32/15 15/33/15 44/34/15 40/35/15
f 29/29/16 1/36/16 12/32/16 40/35/16
f 44/34/17 15/33/17 14/37/17 42/38/17
f 11/30/18 14/37/18 15/33/18 12/32/18
f 31/31/19 42/38/19 14/37/19 11/30/19
f 11/30/20 16/11/20 3/8/20
f 4/12/21 16/11/21 11/30/21 12/32/21 1/36/21
f 22/39/22 24/40/22 23/41/22 18/42/22
f 18/42/23 23/41/23 25/6/23 19/5/23
f 20/7/24 26/10/24 27/43/24 21/44/24
f 21/44/25 27/43/25 24/45/25 22/46/25 45/47/25
f 17/48/26 22/39/26 18/42/26
f 24/49/27 27/50/27 33/51/27 28/52/27
f 27/50/28 26/20/28 34/19/28 33/51/28
f 25/21/29 23/53/29 32/54/29 35/22/29
f 23/53/30 24/49/30 28/52/30 32/54/30
f 19/5/31 30/26/31 18/55/31
f 20/7/32 21/44/32 38/27/32
f 17/56/33 18/55/33 30/26/33 29/29/33
f 36/57/34 38/27/34 21/44/34
f 38/27/35 36/57/35 31/31/35
f 37/58/36 40/35/36 44/34/36 43/59/36
f 29/29/37 40/35/37 37/58/37 17/60/37
f 44/34/38 42/38/38 41/61/38 43/59/38
f 36/57/39 37/58/39 43/59/39 41/61/39
f 31/31/40 36/57/40 41/61/40 42/38/40
f 36/57/41 21/44/41 45/47/41
f 22/46/42 17/60/42 37/58/42 36/57/42 45/47/42
