# Blender v2.82 (sub 7) OBJ File: 'Fort Ticonderoga Class.blend'
# www.blender.org
mtllib Fort Ticonderoga Class Pods.mtl
o Pods_Cylinder.001
v -1.811465 -0.172082 -0.198278
v -1.811465 0.168773 -0.202461
v -1.811465 -0.000000 -0.277227
v -2.025294 -0.172082 -0.198278
v -2.025294 0.168773 -0.202461
v -2.025294 -0.000000 -0.277228
v -1.811463 -0.127539 -1.774233
v -2.025292 -0.127539 -1.774233
v -2.025292 0.127539 -1.774233
v -1.811463 0.127539 -1.774233
v -2.762000 0.292226 -2.198176
v -2.762000 -0.292226 -2.198176
v -2.762000 0.179459 -2.310943
v -2.762000 -0.179459 -2.310943
v -1.211706 0.148784 -2.138758
v -1.211706 -0.148784 -2.138758
v -1.211706 0.120043 -2.167499
v -1.211706 -0.120043 -2.167499
v -2.762000 0.292226 -1.887001
v -2.762000 0.179459 -1.774234
v -1.211707 0.120043 -1.917675
v -1.211707 0.148784 -1.946416
v -2.762000 -0.179459 -1.774234
v -2.762000 -0.292226 -1.887001
v -1.211707 -0.148784 -1.946416
v -1.211707 -0.120043 -1.917675
v -1.411706 0.179459 -2.310942
v -1.411706 -0.179459 -2.310942
v -1.411706 -0.292226 -2.198174
v -1.411706 0.292226 -2.198174
v -1.411707 0.292226 -1.887000
v -1.411707 0.179459 -1.774232
v -1.411707 -0.179459 -1.774232
v -1.411707 -0.292226 -1.887000
v -1.811465 -0.231178 -0.000002
v -1.811465 0.231177 -0.000002
v -1.811466 -0.172082 0.198274
v -1.811466 0.168773 0.202457
v -1.811466 -0.000000 0.277223
v -2.025294 -0.231178 -0.000002
v -2.025295 -0.172082 0.198274
v -2.025294 0.231177 -0.000002
v -2.025295 0.168773 0.202457
v -2.025295 -0.000000 0.277223
v -1.811467 -0.127539 1.774229
v -2.025296 -0.127539 1.774229
v -2.025296 0.127539 1.774229
v -1.811467 0.127539 1.774229
v -2.762004 0.292227 2.198170
v -2.762004 -0.292226 2.198170
v -2.762004 0.179459 2.310937
v -2.762004 -0.179458 2.310937
v -1.211711 0.148784 2.138756
v -1.211711 -0.148783 2.138756
v -1.211711 0.120043 2.167496
v -1.211711 -0.120043 2.167496
v -2.762004 0.292227 1.886995
v -2.762004 0.179459 1.774228
v -1.211711 0.120043 1.917672
v -1.211711 0.148784 1.946413
v -2.762004 -0.179458 1.774228
v -2.762004 -0.292226 1.886995
v -1.211711 -0.148783 1.946413
v -1.211711 -0.120043 1.917672
v -1.411711 0.179459 2.310939
v -1.411711 -0.179458 2.310939
v -1.411711 -0.292226 2.198171
v -1.411711 0.292227 2.198171
v -1.411711 0.292227 1.886997
v -1.411711 0.179459 1.774229
v -1.411711 -0.179458 1.774229
v -1.411711 -0.292226 1.886997
vt 0.210233 0.301321
vt 0.210233 0.301321
vt 0.194037 0.250000
vt 0.194037 0.250000
vt 0.305963 0.250000
vt 0.305963 0.250000
vt 0.289767 0.301321
vt 0.289767 0.301321
vt 0.250000 0.317142
vt 0.289768 0.301321
vt 0.210233 0.301321
vt 0.289767 0.301321
vt 0.250000 0.317142
vt 0.210233 0.301321
vt 0.038495 0.044706
vt 0.072745 0.079166
vt 0.092568 0.099845
vt 0.200480 0.215736
vt 0.206553 0.224947
vt 0.124635 0.158197
vt 0.095267 0.120743
vt 0.039413 0.046275
vt 0.000000 0.000000
vt 0.000000 0.000000
vt 0.000000 0.000000
vt 0.000000 0.000000
vt 0.000000 0.000000
vt 0.225578 0.301321
vt 0.289767 0.301321
vt 0.289767 0.301321
vt 0.289767 0.301321
vt 0.289767 0.301321
vt 0.210233 0.301321
vt 0.210233 0.301321
vt 0.210233 0.301321
vt 0.210233 0.301321
vt 0.210233 0.301321
vt 0.210233 0.301321
vt 0.000000 0.000000
vt 0.077078 0.080151
vt 0.040563 0.058139
vt 0.169669 0.243183
vt 0.154311 0.221171
vt 0.274422 0.301321
vt 0.289767 0.301321
vt 0.000000 0.000000
vt 0.000000 0.000000
vt 0.289767 0.301321
vt 0.077078 0.080151
vt 0.210233 0.301321
vt 0.210233 0.301321
vt 0.289767 0.301321
vt 0.289767 0.301321
vt 0.250000 0.317142
vt 0.210233 0.301321
vt 0.289768 0.301321
vt 0.289767 0.301321
vt 0.250000 0.317142
vt 0.210233 0.301321
vt 0.038495 0.044706
vt 0.039413 0.046275
vt 0.095267 0.120743
vt 0.124635 0.158197
vt 0.206553 0.224947
vt 0.200480 0.215736
vt 0.092568 0.099845
vt 0.072745 0.079166
vt 0.000000 0.000000
vt 0.000000 0.000000
vt 0.000000 0.000000
vt 0.000000 0.000000
vt 0.225578 0.301321
vt 0.000000 0.000000
vt 0.289767 0.301321
vt 0.289767 0.301321
vt 0.289767 0.301321
vt 0.289767 0.301321
vt 0.210233 0.301321
vt 0.210233 0.301321
vt 0.210233 0.301321
vt 0.210233 0.301321
vt 0.210233 0.301321
vt 0.210233 0.301321
vt 0.000000 0.000000
vt 0.154311 0.221171
vt 0.169669 0.243183
vt 0.040563 0.058139
vt 0.077078 0.080151
vt 0.274422 0.301321
vt 0.000000 0.000000
vt 0.000000 0.000000
vt 0.289767 0.301321
vt 0.289767 0.301321
vt 0.077078 0.080151
vn 0.0000 0.9556 -0.2946
vn 0.0000 -0.9583 -0.2856
vn 1.0000 0.0000 0.0000
vn 0.0000 -0.9996 -0.0283
vn -1.0000 0.0000 -0.0000
vn 0.0000 0.9997 -0.0262
vn 0.0000 0.7071 -0.7071
vn -0.0000 0.0000 1.0000
vn 0.0000 -0.7071 -0.7071
vn 0.0000 0.0000 -1.0000
vn 0.0000 1.0000 0.0000
vn -0.0000 0.7071 0.7071
vn -0.0000 -0.7071 0.7071
vn 0.0000 -1.0000 0.0000
vn 0.5828 0.0000 -0.8126
vn 0.5828 -0.5746 -0.5746
vn 0.5828 0.5746 -0.5746
vn 0.5828 0.5746 0.5746
vn 0.5828 0.8126 0.0000
vn 0.5828 -0.5746 0.5746
vn 0.5828 -0.8126 0.0000
vn 0.5828 0.0000 0.8126
vn -0.0000 0.9556 0.2946
vn -0.0000 -0.9583 0.2856
vn -0.0000 -0.9996 0.0283
vn -0.0000 0.9997 0.0262
usemtl None
s off
f 2/1/1 5/2/1 42/3/1 36/4/1
f 35/5/2 40/6/2 4/7/2 1/8/2
f 3/9/3 1/8/3 7/10/3 10/11/3 2/1/3
f 4/7/4 8/12/4 7/10/4 1/8/4
f 6/13/5 5/2/5 9/14/5 8/12/5 4/7/5
f 2/1/6 10/11/6 9/14/6 5/2/6
f 21/15/3 26/16/3 25/17/3 16/18/3 18/19/3 17/20/3 15/21/3 22/22/3
f 13/23/7 11/24/7 30/25/7 27/26/7
f 9/14/8 10/11/8 32/27/8 20/28/8
f 28/29/9 29/30/9 12/31/9 14/32/9
f 13/33/10 27/34/10 28/29/10 14/32/10
f 11/35/11 19/36/11 31/37/11 30/38/11
f 1/8/3 3/9/3 2/1/3 36/4/3 35/5/3
f 4/7/5 40/6/5 42/3/5 5/2/5 6/13/5
f 32/27/12 31/39/12 19/36/12 20/28/12
f 14/32/5 12/31/5 24/40/5 23/41/5 20/42/5 19/43/5 11/24/5 13/33/5
f 23/44/13 24/45/13 34/46/13 33/47/13
f 12/31/14 29/30/14 34/48/14 24/45/14
f 18/19/15 28/29/15 27/34/15 17/20/15
f 16/18/16 29/30/16 28/29/16 18/19/16
f 17/20/17 27/34/17 30/25/17 15/21/17
f 22/22/18 31/39/18 32/27/18 21/15/18
f 15/21/19 30/25/19 31/39/19 22/22/19
f 26/16/20 33/47/20 34/49/20 25/17/20
f 25/17/21 34/49/21 29/30/21 16/18/21
f 21/15/22 32/27/22 33/47/22 26/16/22
f 9/14/8 20/28/8 23/41/8 8/12/8
f 7/10/8 8/12/8 23/44/8 33/47/8
f 7/10/8 33/47/8 32/27/8 10/11/8
f 38/50/23 36/4/23 42/3/23 43/51/23
f 35/5/24 37/52/24 41/53/24 40/6/24
f 39/54/3 38/50/3 48/55/3 45/56/3 37/52/3
f 41/53/25 37/52/25 45/56/25 46/57/25
f 44/58/5 41/53/5 46/57/5 47/59/5 43/51/5
f 38/50/26 43/51/26 47/59/26 48/55/26
f 59/60/3 60/61/3 53/62/3 55/63/3 56/64/3 54/65/3 63/66/3 64/67/3
f 51/68/12 65/69/12 68/70/12 49/71/12
f 47/59/10 58/72/10 70/73/10 48/55/10
f 66/74/13 52/75/13 50/76/13 67/77/13
f 51/78/8 52/75/8 66/74/8 65/79/8
f 49/80/11 68/81/11 69/82/11 57/83/11
f 37/52/3 35/5/3 36/4/3 38/50/3 39/54/3
f 41/53/5 44/58/5 43/51/5 42/3/5 40/6/5
f 70/73/7 58/72/7 57/83/7 69/84/7
f 52/75/5 51/78/5 49/71/5 57/85/5 58/86/5 61/87/5 62/88/5 50/76/5
f 61/89/9 71/90/9 72/91/9 62/92/9
f 50/76/14 62/92/14 72/93/14 67/77/14
f 56/64/22 55/63/22 65/79/22 66/74/22
f 54/65/20 56/64/20 66/74/20 67/77/20
f 55/63/18 53/62/18 68/70/18 65/79/18
f 60/61/17 59/60/17 70/73/17 69/84/17
f 53/62/19 60/61/19 69/84/19 68/70/19
f 64/67/16 63/66/16 72/94/16 71/90/16
f 63/66/21 54/65/21 67/77/21 72/94/21
f 59/60/15 64/67/15 71/90/15 70/73/15
f 47/59/10 46/57/10 61/87/10 58/72/10
f 45/56/10 71/90/10 61/89/10 46/57/10
f 45/56/10 48/55/10 70/73/10 71/90/10
