# Blender v2.91.0 OBJ File: 'Turret1.blend'
# www.blender.org
g Turret_Base_Cube.001
v -1.017213 0.000000 2.354281
v -0.432070 6.045047 1.000000
v -1.017213 0.000000 -2.354281
v -0.432070 6.045047 -1.000000
v 1.017213 0.000000 2.354281
v 0.432070 6.045047 1.000000
v 1.017213 0.000000 -2.354281
v 0.432070 6.045047 -1.000000
v -2.354281 0.000000 0.000000
v -1.000000 6.045047 0.000000
v 2.354281 0.000000 0.000000
v 1.000000 6.045047 0.000000
vt 0.375000 0.125000
vt 0.625000 0.125000
vt 0.625000 0.250000
vt 0.375000 0.250000
vt 0.625000 0.500000
vt 0.375000 0.500000
vt 0.375000 0.625000
vt 0.625000 0.625000
vt 0.625000 0.750000
vt 0.375000 0.750000
vt 0.625000 1.000000
vt 0.375000 1.000000
vt 0.125000 0.500000
vt 0.125000 0.750000
vt 0.125000 0.625000
vt 0.375000 0.000000
vt 0.625000 0.000000
vt 0.875000 0.500000
vt 0.875000 0.625000
vt 0.875000 0.750000
vn -0.8535 0.1912 -0.4847
vn 0.0000 0.2186 -0.9758
vn 0.8535 0.1912 0.4847
vn 0.0000 0.2186 0.9758
vn 0.0000 -1.0000 0.0000
vn 0.8535 0.1912 -0.4847
vn -0.8535 0.1912 0.4847
vn 0.0000 1.0000 0.0000
s off
f 9/1/1 10/2/1 4/3/1 3/4/1
f 3/4/2 4/3/2 8/5/2 7/6/2
f 11/7/3 12/8/3 6/9/3 5/10/3
f 5/10/4 6/9/4 2/11/4 1/12/4
f 3/13/5 7/6/5 11/7/5 5/10/5 1/14/5 9/15/5
f 7/6/6 8/5/6 12/8/6 11/7/6
f 1/16/7 2/17/7 10/2/7 9/1/7
f 8/5/8 4/18/8 10/19/8 2/20/8 6/9/8 12/8/8
g Turret_Body_Cube.002
v -0.722098 6.047670 1.671253
v -0.306717 7.239499 0.709878
v -0.722098 6.047670 -1.671253
v -0.306717 7.239499 -0.709878
v 0.722098 6.047670 1.671253
v 0.306717 7.239499 0.709878
v 0.722098 6.047670 -1.671253
v 0.306717 7.239499 -0.709878
v -1.671253 6.047670 0.000000
v -0.709878 7.239499 0.000000
v 1.671253 6.047670 0.000000
v 0.709878 7.239499 0.000000
v -0.388552 6.047670 1.671253
v -0.165041 7.239498 0.709878
v 0.165041 7.239498 0.709878
v 0.388552 6.047670 1.671253
v -0.345920 7.127017 0.800611
v -0.345920 7.127017 -0.800611
v 0.345920 7.127017 -0.800611
v 0.345920 7.127017 0.800611
v 0.800611 7.127017 0.000000
v -0.800611 7.127017 0.000000
v -0.186135 7.127017 0.800611
v 0.186135 7.127017 0.800611
v -0.678210 6.173594 -1.569678
v 0.678210 6.173594 -1.569678
v 0.678210 6.173594 1.569678
v 1.569678 6.173594 0.000000
v -1.569678 6.173594 0.000000
v 0.364937 6.173594 1.569678
v -0.678210 6.173594 1.569678
v -0.364937 6.173594 1.569678
v -0.364937 6.173594 1.167808
v -0.186135 7.127017 0.398740
v 0.186135 7.127017 0.398740
v 0.364937 6.173594 1.167808
vt 0.601406 0.125000
vt 0.625000 0.125000
vt 0.625000 0.250000
vt 0.601406 0.250000
vt 0.625000 0.500000
vt 0.601406 0.500000
vt 0.601406 0.625000
vt 0.625000 0.625000
vt 0.625000 0.750000
vt 0.601406 0.750000
vt 0.401414 0.000000
vt 0.375000 0.000000
vt 0.375000 0.000000
vt 0.401414 0.000000
vt 0.601406 0.000000
vt 0.625000 0.000000
vt 0.601406 0.750000
vt 0.625000 0.750000
vt 0.625000 1.000000
vt 0.601406 1.000000
vt 0.125000 0.750000
vt 0.375000 0.750000
vt 0.375000 0.750000
vt 0.125000 0.750000
vt 0.875000 0.750000
vt 0.875000 0.750000
vt 0.401414 0.750000
vt 0.401414 0.750000
vt 0.601406 0.000000
vt 0.401414 0.000000
vt 0.601406 0.000000
vt 0.401414 0.125000
vt 0.401414 0.500000
vt 0.401414 0.625000
vt 0.625000 0.000000
vt 0.401414 0.250000
vt 0.375000 0.125000
vt 0.375000 0.250000
vt 0.375000 0.500000
vt 0.375000 0.625000
vt 0.401414 1.000000
vt 0.375000 1.000000
vt 0.401414 0.750000
vt 0.601406 0.750000
vt 0.601406 1.000000
vt 0.401414 1.000000
vt 0.000000 0.000000
vt 0.000000 0.000000
vt 0.000000 0.000000
vt 0.000000 0.000000
vt 0.000000 0.000000
vt 0.000000 0.000000
vt 0.000000 0.000000
vt 0.000000 0.000000
vn -0.7119 0.5742 -0.4043
vn 0.0000 0.6278 -0.7783
vn 0.7119 0.5742 0.4043
vn 0.0000 0.6278 0.7783
vn 0.7119 0.5742 -0.4043
vn -0.7119 0.5742 0.4043
vn 0.0000 0.0000 1.0000
vn 0.9829 -0.1843 0.0000
vn 0.0000 -1.0000 0.0000
vn 0.0000 1.0000 0.0000
vn -0.9829 -0.1843 0.0000
s off
f 34/21/9 22/22/9 16/23/9 30/24/9
f 30/24/10 16/23/10 20/25/10 31/26/10
f 33/27/11 24/28/11 18/29/11 32/30/11
f 43/31/12 13/32/12 25/33/12 44/34/12
f 31/26/13 20/25/13 24/28/13 33/27/13
f 29/35/14 14/36/14 22/22/14 34/21/14
f 36/37/12 27/38/12 26/39/12 35/40/12
f 13/41/15 17/42/15 28/43/15 25/44/15
f 18/29/15 14/45/15 26/46/15 27/38/15
f 32/30/12 18/29/12 27/38/12 36/37/12
f 39/47/12 32/30/12 36/37/12 42/48/12
f 35/49/16 44/34/16 45/50/16 46/51/16
f 43/31/14 29/35/14 34/21/14 41/52/14
f 38/53/13 31/26/13 33/27/13 40/54/13
f 14/36/12 29/35/12 35/49/12 26/55/12
f 40/54/11 33/27/11 32/30/11 39/47/11
f 37/56/10 30/24/10 31/26/10 38/53/10
f 41/52/9 34/21/9 30/24/9 37/56/9
f 21/57/9 41/52/9 37/56/9 15/58/9
f 15/58/10 37/56/10 38/53/10 19/59/10
f 23/60/11 40/54/11 39/47/11 17/42/11
f 19/59/13 38/53/13 40/54/13 23/60/13
f 13/32/14 43/31/14 41/52/14 21/57/14
f 28/43/12 42/48/12 44/61/12 25/62/12
f 17/42/12 39/47/12 42/48/12 28/43/12
f 29/35/12 43/31/12 44/34/12 35/49/12
f 48/63/12 47/64/12 46/65/12 45/66/12
f 36/37/17 35/40/17 46/65/17 47/64/17
f 44/61/18 42/48/18 48/63/18 45/66/18
f 42/48/19 36/37/19 47/64/19 48/63/19
f 22/67/18 14/68/18 26/69/18 27/70/18 18/71/18 24/72/18 20/73/18 16/74/18
f 21/57/17 15/58/17 19/59/17 23/60/17 17/42/17 13/41/17
g laser_barrel_Cube.003
v -0.107601 6.859750 0.216644
v -0.107602 6.859750 3.611773
v 0.107602 6.859750 0.216644
v 0.107601 6.859750 3.611773
v -0.107601 6.379750 0.216644
v -0.107602 6.379750 3.611773
v 0.107602 6.379750 0.216644
v 0.107601 6.379750 3.611773
v 0.240000 6.619750 0.216644
v 0.240000 6.619750 3.611773
v -0.240000 6.619750 0.216644
v -0.240000 6.619750 3.611773
vt 0.375000 0.000000
vt 0.625000 0.000000
vt 0.625000 0.250000
vt 0.375000 0.250000
vt 0.375000 0.375000
vt 0.625000 0.375000
vt 0.625000 0.500000
vt 0.375000 0.500000
vt 0.625000 0.750000
vt 0.375000 0.750000
vt 0.375000 0.875000
vt 0.625000 0.875000
vt 0.625000 1.000000
vt 0.375000 1.000000
vt 0.125000 0.500000
vt 0.250000 0.500000
vt 0.250000 0.750000
vt 0.125000 0.750000
vn 0.0000 1.0000 0.0000
vn 0.8756 -0.4830 0.0000
vn 0.0000 -1.0000 0.0000
vn -0.8756 0.4830 -0.0000
vn -0.8756 -0.4830 -0.0000
vn 0.8756 0.4830 0.0000
vn 0.0000 0.0000 -1.0000
vn 0.0000 0.0000 1.0000
s off
f 49/75/20 50/76/20 52/77/20 51/78/20
f 57/79/21 58/80/21 56/81/21 55/82/21
f 55/82/22 56/81/22 54/83/22 53/84/22
f 59/85/23 60/86/23 50/87/23 49/88/23
f 53/84/24 54/83/24 60/86/24 59/85/24
f 51/78/25 52/77/25 58/80/25 57/79/25
f 51/89/26 57/90/26 55/82/26 53/84/26 59/91/26 49/92/26
f 50/87/27 60/86/27 54/83/27 56/81/27 58/80/27 52/77/27
