# Blender v2.83.0 OBJ File: 'Fort Ticonderoga Class.blend'
# www.blender.org
mtllib Fort Ticonderoga Core.mtl
o Core_Cube.005
v 2.220248 -0.000000 7.606288
v 1.110124 -1.716309 7.606288
v 2.220248 -0.858155 7.606288
v 1.110124 1.716309 7.606288
v 2.220248 0.858155 7.606288
v 2.220249 -0.000000 -9.556807
v 2.220249 0.858155 -9.556807
v 1.110126 -1.716309 -9.556807
v 2.220249 -0.858155 -9.556807
v 1.110126 1.716309 -9.556807
v 1.110125 1.716309 -3.510276
v 2.220249 0.858155 -3.510276
v 2.220249 -0.000000 -3.510276
v 2.220249 -0.858155 -3.510276
v 1.110125 -1.716309 -3.510276
v 1.110125 1.716309 1.771564
v 2.220248 0.858155 1.771564
v 2.220248 -0.858155 1.771564
v 2.220248 -0.000000 1.771564
v 1.110125 -1.716309 1.771564
v -2.220248 -0.000000 7.606288
v -0.000000 -1.716309 7.606288
v -0.000000 1.716309 7.606288
v -1.110125 -1.716309 7.606288
v -2.220248 -0.858155 7.606288
v -1.110125 1.716309 7.606288
v -2.220248 0.858155 7.606288
v -2.220247 -0.000000 -9.556807
v 0.000001 -1.716309 -9.556807
v -2.220247 0.858155 -9.556807
v 0.000001 1.716309 -9.556807
v -1.110124 -1.716309 -9.556807
v -2.220247 -0.858155 -9.556807
v -1.110124 1.716309 -9.556807
v -1.110124 1.716309 -3.510276
v 0.000000 1.716309 -3.510276
v -2.220248 0.858155 -3.510276
v -2.220248 -0.000000 -3.510276
v 0.000000 -1.716309 -3.510276
v -2.220248 -0.858155 -3.510276
v -1.110124 -1.716309 -3.510276
v -1.110125 1.716309 1.771564
v -2.220248 0.858155 1.771564
v 0.000000 -1.716309 1.771564
v -2.220248 -0.858155 1.771564
v 0.000000 1.716309 1.771564
v -2.220248 -0.000000 1.771564
v -1.110125 -1.716309 1.771564
vt 0.562500 0.156250
vt 0.531250 0.187500
vt 0.531250 0.187500
vt 0.562500 0.156250
vt 0.500000 0.187500
vt 0.500000 0.187500
vt 0.437500 0.156250
vt 0.437500 0.125000
vt 0.437500 0.125000
vt 0.437500 0.156250
vt 0.468750 0.187500
vt 0.468750 0.187500
vt 0.562500 0.125000
vt 0.562500 0.125000
vt 0.165140 0.066056
vt 0.000000 0.000000
vt 0.531250 0.187500
vt 0.562500 0.156250
vt 0.562500 0.125000
vt 0.437500 0.125000
vt 0.437500 0.156250
vt 0.468750 0.187500
vt 0.500000 0.187500
vt 0.562500 0.125000
vt 0.562500 0.156250
vt 0.531250 0.187500
vt 0.500000 0.187500
vt 0.309395 0.123758
vt 0.437500 0.156250
vt 0.437500 0.125000
vt 0.468750 0.187500
vt 0.562500 0.156250
vt 0.562500 0.156250
vt 0.531250 0.187500
vt 0.531250 0.187500
vt 0.500000 0.187500
vt 0.500000 0.187500
vt 0.437500 0.156250
vt 0.437500 0.156250
vt 0.468750 0.187500
vt 0.468750 0.187500
vt 0.000000 0.000000
vt 0.165140 0.066056
vt 0.531250 0.187500
vt 0.500000 0.187500
vt 0.468750 0.187500
vt 0.437500 0.156250
vt 0.562500 0.156250
vt 0.437500 0.156250
vt 0.309395 0.123758
vt 0.500000 0.187500
vt 0.531250 0.187500
vt 0.562500 0.156250
vt 0.468750 0.187500
vn 0.6116 0.7912 0.0000
vn 1.0000 -0.0000 0.0000
vn 0.0000 -1.0000 0.0000
vn 0.6116 -0.7912 0.0000
vn 0.0000 1.0000 0.0000
vn 0.0000 0.0000 1.0000
vn 0.0000 0.0000 -1.0000
vn -0.6116 0.7912 -0.0000
vn -1.0000 0.0000 -0.0000
vn -0.6116 -0.7912 -0.0000
usemtl None
s off
f 11/1/1 12/2/1 7/3/1 10/4/1
f 12/2/2 13/5/2 6/6/2 7/3/2
f 15/7/3 39/8/3 29/9/3 8/10/3
f 14/11/4 15/7/4 8/10/4 9/12/4
f 36/13/5 11/1/5 10/4/5 31/14/5
f 13/5/2 14/15/2 9/16/2 6/6/2
f 5/17/6 4/18/6 23/19/6 22/20/6 2/21/6 3/22/6 1/23/6
f 7/3/7 6/6/7 9/12/7 8/10/7 29/9/7 31/14/7 10/4/7
f 14/11/6 13/5/6 12/2/6 11/1/6 36/13/6 39/8/6 15/7/6
f 46/24/7 16/25/7 17/26/7 19/27/7 18/28/7 20/29/7 44/30/7
f 4/18/1 5/17/1 17/26/1 16/25/1
f 5/17/2 1/23/2 19/27/2 17/26/2
f 2/21/3 22/20/3 44/30/3 20/29/3
f 3/22/4 2/21/4 20/29/4 18/31/4
f 23/19/5 4/18/5 16/25/5 46/24/5
f 1/23/2 3/22/2 18/28/2 19/27/2
f 35/32/8 34/33/8 30/34/8 37/35/8
f 37/35/9 30/34/9 28/36/9 38/37/9
f 41/38/3 32/39/3 29/9/3 39/8/3
f 40/40/10 33/41/10 32/39/10 41/38/10
f 36/13/5 31/14/5 34/33/5 35/32/5
f 38/37/9 28/36/9 33/42/9 40/43/9
f 27/44/6 21/45/6 25/46/6 24/47/6 22/20/6 23/19/6 26/48/6
f 30/34/7 34/33/7 31/14/7 29/9/7 32/39/7 33/41/7 28/36/7
f 40/40/6 41/38/6 39/8/6 36/13/6 35/32/6 37/35/6 38/37/6
f 46/24/7 44/30/7 48/49/7 45/50/7 47/51/7 43/52/7 42/53/7
f 26/48/8 42/53/8 43/52/8 27/44/8
f 27/44/9 43/52/9 47/51/9 21/45/9
f 24/47/3 48/49/3 44/30/3 22/20/3
f 25/46/10 45/54/10 48/49/10 24/47/10
f 23/19/5 46/24/5 42/53/5 26/48/5
f 21/45/9 47/51/9 45/50/9 25/46/9
