# Blender v2.83.0 OBJ File: 'Fort Ticonderoga Class.blend'
# www.blender.org
mtllib Fort Ticonderoga Right Middle Arm.mtl
o Right_Middle_Piston_Cube.010
v 9.285479 -1.175620 -0.712259
v 9.285479 -0.172812 0.227873
v 9.285479 1.175622 -1.183236
v 9.285479 0.172814 -2.123368
v 9.285479 -1.175620 -1.183236
v 9.285479 -0.172812 -2.123368
v 9.285479 0.172814 0.227873
v 9.285479 1.175621 -0.712259
v 15.635858 -0.056086 0.080424
v 15.635858 0.056089 0.080424
v 15.635858 -0.056086 -1.975916
v 15.635858 -1.028168 -1.064590
v 15.635858 1.028172 -0.830903
v 15.635858 1.028172 -1.064589
v 15.635858 0.056089 -1.975916
v 15.635858 -1.028169 -0.830903
v 15.635858 -0.172812 0.227874
v 15.635858 0.172815 0.227875
v 15.635858 -0.172811 -2.123367
v 15.635858 -1.175619 -1.183235
v 15.635858 1.175622 -0.712257
v 15.635858 1.175622 -1.183235
v 15.635858 0.172815 -2.123367
v 15.635858 -1.175619 -0.712258
vt 0.508257 0.424167
vt 0.491744 0.424167
vt 0.491744 0.424167
vt 0.508257 0.424167
vt 0.450600 0.384849
vt 0.450600 0.384849
vt 0.450600 0.365151
vt 0.450600 0.365151
vt 0.549400 0.384849
vt 0.549400 0.384849
vt 0.491743 0.325833
vt 0.491743 0.325833
vt 0.508257 0.325833
vt 0.549400 0.365151
vt 0.549400 0.365151
vt 0.508257 0.325833
vt 0.497928 0.410833
vt 0.502072 0.410833
vt 0.497928 0.339167
vt 0.463912 0.370928
vt 0.536088 0.379072
vt 0.536088 0.370928
vt 0.502072 0.339167
vt 0.463912 0.379072
vn -0.0000 -0.0000 1.0000
vn -0.0000 -0.6839 0.7295
vn 0.0000 -1.0000 -0.0000
vn -0.0000 0.6839 0.7295
vn 0.0000 -0.6839 -0.7295
vn 0.0000 0.6839 -0.7295
vn 0.0000 0.0000 -1.0000
vn -0.0000 1.0000 0.0000
vn 1.0000 -0.0000 0.0000
vn -1.0000 0.0000 0.0000
usemtl (null)
s off
f 7/1/1 2/2/1 17/3/1 18/4/1
f 2/2/2 1/5/2 24/6/2 17/3/2
f 1/5/3 5/7/3 20/8/3 24/6/3
f 8/9/4 7/1/4 18/4/4 21/10/4
f 5/7/5 6/11/5 19/12/5 20/8/5
f 4/13/6 3/14/6 22/15/6 23/16/6
f 6/11/7 4/13/7 23/16/7 19/12/7
f 3/14/8 8/9/8 21/10/8 22/15/8
f 9/17/9 10/18/9 18/4/9 17/3/9
f 11/19/9 12/20/9 20/8/9 19/12/9
f 13/21/9 14/22/9 22/15/9 21/10/9
f 10/18/9 13/21/9 21/10/9 18/4/9
f 15/23/9 11/19/9 19/12/9 23/16/9
f 12/20/9 16/24/9 24/6/9 20/8/9
f 14/22/9 15/23/9 23/16/9 22/15/9
f 16/24/9 9/17/9 17/3/9 24/6/9
f 9/17/9 16/24/9 12/20/9 11/19/9 15/23/9 14/22/9 13/21/9 10/18/9
f 2/2/10 7/1/10 8/9/10 3/14/10 4/13/10 6/11/10 5/7/10 1/5/10
