# Blender v2.83.0 OBJ File: 'Fort Ticonderoga Class.blend'
# www.blender.org
mtllib Fort Ticonderoga Drive.mtl
o Core.001_Cube.001
v 2.220249 -0.000000 -9.556807
v 2.220249 0.858155 -9.556807
v 1.110126 -1.716309 -9.556807
v 2.220249 -0.858155 -9.556807
v 1.110126 1.716309 -9.556807
v 9.004807 1.688401 -17.314541
v 9.004807 -0.000000 -17.314541
v 1.110126 -4.502403 -17.314541
v 1.110126 4.502403 -17.314541
v 9.004807 -1.688401 -17.314541
v 0.555064 -4.502403 -17.314541
v 1.665188 -3.376802 -17.314541
v 1.665188 3.376802 -17.314541
v 0.555064 4.502403 -17.314541
v 0.555064 -1.716309 -9.556807
v 1.665187 -1.287232 -9.556807
v 1.665187 1.287232 -9.556807
v 0.555064 1.716309 -9.556807
v 7.597806 0.568318 -39.044659
v 7.597806 -0.000000 -39.044659
v 0.555064 -4.502403 -39.044659
v 1.110126 -4.502403 -39.044659
v 0.555064 4.502403 -39.044659
v 1.110126 4.502403 -39.044659
v 3.072188 1.609388 -39.044659
v 3.072188 -1.609388 -39.044659
v 7.597806 -0.568318 -39.044659
v 9.004807 1.688401 -39.044659
v 9.004807 -0.000000 -39.044659
v 1.665188 3.376802 -39.044659
v 1.665188 -3.376802 -39.044659
v 9.004807 -1.688401 -39.044659
v 7.879206 0.792334 -39.607460
v 7.879206 -0.000000 -39.607460
v 2.790788 1.962870 -39.607460
v 2.790788 -1.962871 -39.607460
v 7.879206 -0.792334 -39.607460
v -2.220247 -0.000000 -9.556807
v 0.000001 -1.716309 -9.556807
v -2.220247 0.858155 -9.556807
v 0.000001 1.716309 -9.556807
v -1.110124 -1.716309 -9.556807
v -2.220247 -0.858155 -9.556807
v -1.110124 1.716309 -9.556807
v -9.004805 1.688401 -17.314541
v -9.004805 -0.000000 -17.314541
v 0.000002 -4.502403 -17.314541
v -1.110123 -4.502403 -17.314541
v 0.000002 4.502403 -17.314541
v -1.110123 4.502403 -17.314541
v -9.004805 -1.688401 -17.314541
v -0.555061 -4.502403 -17.314541
v -1.665185 -3.376802 -17.314541
v -1.665185 3.376802 -17.314541
v -0.555061 4.502403 -17.314541
v -0.555062 -1.716309 -9.556807
v -1.665186 -1.287232 -9.556807
v -1.665186 1.287232 -9.556807
v -0.555062 1.716309 -9.556807
v -7.597799 0.568318 -39.044659
v -7.597799 -0.000000 -39.044659
v -0.555058 -4.502403 -39.044659
v -1.110119 -4.502403 -39.044659
v -0.555058 4.502403 -39.044659
v -1.110119 4.502403 -39.044659
v -3.072182 1.609388 -39.044659
v -3.072182 -1.609388 -39.044659
v -7.597799 -0.568318 -39.044659
v 0.000003 -4.502403 -39.044659
v 0.000003 4.502403 -39.044659
v -9.004801 1.688401 -39.044659
v -9.004801 -0.000000 -39.044659
v -1.665181 3.376802 -39.044659
v -1.665181 -3.376802 -39.044659
v -9.004801 -1.688401 -39.044659
v -7.879200 0.792334 -39.607460
v -7.879200 -0.000000 -39.607460
v -2.790782 1.962870 -39.607460
v -2.790782 -1.962871 -39.607460
v -7.879200 -0.792334 -39.607460
vt 0.562500 0.125000
vt 0.562500 0.140625
vt 0.562500 0.140625
vt 0.562500 0.125000
vt 0.453125 0.171875
vt 0.437500 0.156250
vt 0.437500 0.156250
vt 0.453125 0.171875
vt 0.562500 0.140625
vt 0.562500 0.156250
vt 0.562500 0.156250
vt 0.531250 0.187500
vt 0.500000 0.187500
vt 0.500000 0.187500
vt 0.531250 0.187500
vt 0.000000 0.000000
vt 0.000000 0.000000
vt 0.546875 0.171875
vt 0.546875 0.171875
vt 0.437500 0.140625
vt 0.437500 0.125000
vt 0.437500 0.125000
vt 0.437500 0.140625
vt 0.562500 0.125000
vt 0.468750 0.187500
vt 0.468750 0.187500
vt 0.546875 0.171875
vt 0.453125 0.171875
vt 0.437500 0.156250
vt 0.437500 0.140625
vt 0.437500 0.125000
vt 0.562500 0.156250
vt 0.500000 0.187500
vt 0.531250 0.187500
vt 0.468750 0.187500
vt 0.000000 0.000000
vt 0.509890 0.184505
vt 0.500000 0.184505
vt 0.490110 0.184505
vt 0.477090 0.174870
vt 0.522910 0.174870
vt 0.500000 0.185104
vt 0.513985 0.185104
vt 0.527835 0.174271
vt 0.472164 0.174271
vt 0.486015 0.185104
vt 0.562500 0.140625
vt 0.562500 0.140625
vt 0.453125 0.171875
vt 0.453125 0.171875
vt 0.437500 0.156250
vt 0.437500 0.156250
vt 0.562500 0.140625
vt 0.562500 0.156250
vt 0.562500 0.156250
vt 0.531250 0.187500
vt 0.531250 0.187500
vt 0.500000 0.187500
vt 0.500000 0.187500
vt 0.000000 0.000000
vt 0.000000 0.000000
vt 0.546875 0.171875
vt 0.546875 0.171875
vt 0.437500 0.140625
vt 0.437500 0.140625
vt 0.468750 0.187500
vt 0.468750 0.187500
vt 0.546875 0.171875
vt 0.562500 0.156250
vt 0.437500 0.140625
vt 0.437500 0.156250
vt 0.453125 0.171875
vt 0.531250 0.187500
vt 0.500000 0.187500
vt 0.468750 0.187500
vt 0.000000 0.000000
vt 0.509890 0.184505
vt 0.522910 0.174870
vt 0.477090 0.174870
vt 0.490110 0.184505
vt 0.500000 0.184505
vt 0.500000 0.185104
vt 0.513985 0.185104
vt 0.527835 0.174271
vt 0.472164 0.174271
vt 0.486015 0.185104
vn 0.0000 1.0000 0.0000
vn 0.8006 -0.5717 0.1796
vn 0.0000 0.9411 0.3380
vn 0.7527 0.0000 0.6583
vn 0.2485 0.9264 0.2830
vn 0.0000 -0.9411 0.3380
vn 0.8006 0.5717 0.1796
vn 0.2485 -0.9264 0.2830
vn 0.0000 0.0000 -1.0000
vn 1.0000 0.0000 0.0000
vn 0.0000 -1.0000 0.0000
vn 0.2242 -0.9745 -0.0000
vn 0.8969 -0.4423 -0.0000
vn 0.8969 0.4423 -0.0000
vn 0.2242 0.9745 -0.0000
vn 0.4472 0.0000 -0.8944
vn 0.1003 0.4358 -0.8944
vn 0.1003 -0.4358 -0.8944
vn -0.4472 0.0000 -0.8944
vn -0.8944 0.0000 -0.4472
vn -0.2005 -0.8717 -0.4472
vn -0.2005 0.8717 -0.4472
vn 0.8944 0.0000 -0.4472
vn -0.8006 -0.5717 0.1796
vn -0.7527 0.0000 0.6583
vn -0.2485 0.9264 0.2830
vn -0.8006 0.5717 0.1796
vn -0.2485 -0.9264 0.2830
vn -1.0000 0.0000 -0.0000
vn -0.2242 -0.9745 -0.0000
vn -0.8969 -0.4423 -0.0000
vn -0.8969 0.4423 -0.0000
vn -0.2242 0.9745 -0.0000
vn -0.1003 0.4358 -0.8944
vn -0.1003 -0.4358 -0.8944
vn 0.2005 -0.8717 -0.4472
vn 0.2005 0.8717 -0.4472
usemtl None
s off
f 49/1/1 14/2/1 23/3/1 70/4/1
f 16/5/2 3/6/2 8/7/2 12/8/2
f 18/9/3 5/10/3 9/11/3 14/2/3
f 2/12/4 1/13/4 7/14/4 6/15/4
f 1/13/4 4/16/4 10/17/4 7/14/4
f 17/18/5 2/12/5 6/15/5 13/19/5
f 15/20/6 39/21/6 47/22/6 11/23/6
f 41/24/3 18/9/3 14/2/3 49/1/3
f 5/10/7 17/18/7 13/19/7 9/11/7
f 4/25/8 16/5/8 12/8/8 10/26/8
f 3/6/6 15/20/6 11/23/6 8/7/6
f 30/27/9 31/28/9 22/29/9 21/30/9 69/31/9 70/4/9 23/3/9 24/32/9
f 6/15/10 7/14/10 29/33/10 28/34/10
f 11/23/11 47/22/11 69/31/11 21/30/11
f 10/26/12 12/8/12 31/28/12 32/35/12
f 8/7/11 11/23/11 21/30/11 22/29/11
f 12/8/13 8/7/13 22/29/13 31/28/13
f 7/14/10 10/17/10 32/36/10 29/33/10
f 14/2/1 9/11/1 24/32/1 23/3/1
f 9/11/14 13/19/14 30/27/14 24/32/14
f 13/19/15 6/15/15 28/34/15 30/27/15
f 19/37/9 20/38/9 27/39/9 26/40/9 25/41/9
f 34/42/16 33/43/16 28/34/16 29/33/16
f 33/43/17 35/44/17 30/27/17 28/34/17
f 36/45/18 37/46/18 32/35/18 31/28/18
f 37/46/16 34/42/16 29/33/16 32/35/16
f 35/44/19 36/45/19 31/28/19 30/27/19
f 20/38/20 19/37/20 33/43/20 34/42/20
f 19/37/21 25/41/21 35/44/21 33/43/21
f 26/40/22 27/39/22 37/46/22 36/45/22
f 27/39/20 20/38/20 34/42/20 37/46/20
f 25/41/23 26/40/23 36/45/23 35/44/23
f 49/1/1 70/4/1 64/47/1 55/48/1
f 57/49/24 53/50/24 48/51/24 42/52/24
f 59/53/3 55/48/3 50/54/3 44/55/3
f 40/56/25 45/57/25 46/58/25 38/59/25
f 38/59/25 46/58/25 51/60/25 43/61/25
f 58/62/26 54/63/26 45/57/26 40/56/26
f 56/64/6 52/65/6 47/22/6 39/21/6
f 41/24/3 49/1/3 55/48/3 59/53/3
f 44/55/27 50/54/27 54/63/27 58/62/27
f 43/66/28 51/67/28 53/50/28 57/49/28
f 42/52/6 48/51/6 52/65/6 56/64/6
f 73/68/9 65/69/9 64/47/9 70/4/9 69/31/9 62/70/9 63/71/9 74/72/9
f 45/57/29 71/73/29 72/74/29 46/58/29
f 52/65/11 62/70/11 69/31/11 47/22/11
f 51/67/30 75/75/30 74/72/30 53/50/30
f 48/51/11 63/71/11 62/70/11 52/65/11
f 53/50/31 74/72/31 63/71/31 48/51/31
f 46/58/29 72/74/29 75/76/29 51/60/29
f 55/48/1 64/47/1 65/69/1 50/54/1
f 50/54/32 65/69/32 73/68/32 54/63/32
f 54/63/33 73/68/33 71/73/33 45/57/33
f 60/77/9 66/78/9 67/79/9 68/80/9 61/81/9
f 77/82/19 72/74/19 71/73/19 76/83/19
f 76/83/34 71/73/34 73/68/34 78/84/34
f 79/85/35 74/72/35 75/75/35 80/86/35
f 80/86/19 75/75/19 72/74/19 77/82/19
f 78/84/16 73/68/16 74/72/16 79/85/16
f 61/81/23 77/82/23 76/83/23 60/77/23
f 60/77/36 76/83/36 78/84/36 66/78/36
f 67/79/37 79/85/37 80/86/37 68/80/37
f 68/80/23 80/86/23 77/82/23 61/81/23
f 66/78/20 78/84/20 79/85/20 67/79/20
