# Blender v2.83.0 OBJ File: 'Fort Ticonderoga Class.blend'
# www.blender.org
mtllib Fort Ticonderoga ArmBase.mtl
o Pod_Core_Cube.003
v 3.188125 1.594062 -0.549233
v 3.188124 -0.398516 0.646314
v 3.188125 -1.594062 -0.549233
v 3.188125 -0.398516 -2.541811
v 3.188124 0.398515 0.646314
v 3.188125 -1.594062 -1.346264
v 3.188125 0.398515 -2.541811
v 3.188125 1.594062 -1.346264
v 9.285479 -1.175621 -0.712260
v 9.285479 -0.172813 0.227872
v 9.285479 1.175621 -1.183238
v 9.285479 0.172813 -2.123369
v 9.285479 -1.175621 -1.183238
v 9.285479 -0.172813 -2.123369
v 9.285479 0.172813 0.227872
v 9.285479 1.175621 -0.712260
v 9.285479 -0.298887 0.546685
v 9.285479 0.298887 0.546685
v 9.285479 -0.298887 -2.442182
v 9.285479 -1.494433 -1.321357
v 9.285479 1.494433 -0.574140
v 9.285479 1.494433 -1.321357
v 9.285479 0.298887 -2.442182
v 9.285479 -1.494433 -0.574140
v -3.188124 1.594062 -0.549234
v -3.188125 -0.398516 0.646312
v -3.188124 -1.594062 -0.549234
v -3.188124 -0.398516 -2.541812
v -3.188125 0.398515 0.646312
v -3.188124 -1.594062 -1.346265
v -3.188124 0.398515 -2.541812
v -3.188124 1.594062 -1.346265
v -9.285479 -1.175621 -0.712263
v -9.285479 -0.172813 0.227869
v -9.285479 1.175621 -1.183241
v -9.285479 0.172813 -2.123373
v -9.285479 -1.175621 -1.183241
v -9.285479 -0.172813 -2.123373
v -9.285479 0.172813 0.227869
v -9.285479 1.175621 -0.712263
v -9.285479 -0.298887 0.546681
v -9.285479 0.298887 0.546681
v -9.285479 -0.298887 -2.442186
v -9.285479 -1.494433 -1.321361
v -9.285479 1.494433 -0.574144
v -9.285479 1.494433 -1.321361
v -9.285479 0.298887 -2.442186
v -9.285479 -1.494433 -0.574144
v 1.433337 -2.800102 2.317980
v 1.433337 2.800102 2.317980
v 2.800101 -1.433338 2.317981
v 2.800101 1.433338 2.317981
v -1.433338 -2.800102 2.317980
v -1.433338 2.800102 2.317980
v -2.800102 -1.433338 2.317980
v -2.800102 1.433338 2.317980
v 1.433339 2.800102 -4.213479
v 1.433339 -2.800102 -4.213479
v 2.800102 -1.433338 -4.213479
v 2.800102 1.433338 -4.213479
v -1.433337 2.800102 -4.213480
v -1.433337 -2.800102 -4.213480
v -2.800101 -1.433338 -4.213480
v -2.800101 1.433338 -4.213480
v 1.594062 -3.188125 1.429957
v 3.188124 -1.594062 1.429958
v 3.188124 1.594062 1.429958
v 1.594062 3.188125 1.429957
v -1.594063 -3.188125 1.429957
v -3.188125 -1.594062 1.429956
v -3.188125 1.594062 1.429956
v -1.594063 3.188125 1.429957
v 1.594063 -3.188125 -3.325455
v 1.594063 3.188125 -3.325455
v 3.188125 -1.594062 -3.325455
v 3.188125 1.594062 -3.325455
v -1.594061 -3.188125 -3.325456
v -1.594061 3.188125 -3.325456
v -3.188124 -1.594062 -3.325456
v -3.188124 1.594062 -3.325456
vt 0.515625 0.437500
vt 0.484375 0.437500
vt 0.484375 0.437500
vt 0.515625 0.437500
vt 0.437500 0.359375
vt 0.484375 0.312500
vt 0.484375 0.312500
vt 0.437500 0.359375
vt 0.562500 0.359375
vt 0.562500 0.390625
vt 0.562500 0.390625
vt 0.562500 0.359375
vt 0.515625 0.312500
vt 0.515625 0.312500
vt 0.437500 0.390625
vt 0.437500 0.390625
vt 0.491744 0.424167
vt 0.508257 0.424167
vt 0.491743 0.325833
vt 0.450600 0.365151
vt 0.549400 0.384849
vt 0.549400 0.365151
vt 0.508257 0.325833
vt 0.450600 0.384849
vt 0.515625 0.437500
vt 0.515625 0.437500
vt 0.484375 0.437500
vt 0.484375 0.437500
vt 0.437500 0.359375
vt 0.437500 0.359375
vt 0.484375 0.312500
vt 0.484375 0.312500
vt 0.562500 0.359375
vt 0.562500 0.359375
vt 0.562500 0.390625
vt 0.562500 0.390625
vt 0.515625 0.312500
vt 0.515625 0.312500
vt 0.437500 0.390625
vt 0.437500 0.390625
vt 0.491744 0.424167
vt 0.508257 0.424167
vt 0.491743 0.325833
vt 0.450600 0.365151
vt 0.549400 0.384849
vt 0.549400 0.365151
vt 0.508257 0.325833
vt 0.450600 0.384849
vt 0.000000 0.000000
vt 0.000000 0.000000
vt 0.000000 0.000000
vt 0.000000 0.000000
vt 0.000000 0.000000
vt 0.000000 0.000000
vt 0.000000 0.000000
vt 0.000000 0.000000
vt 0.000000 0.000000
vt 0.000000 0.000000
vt 0.000000 0.000000
vt 0.000000 0.000000
vt 0.000000 0.000000
vt 0.000000 0.000000
vt 0.000000 0.000000
vt 0.000000 0.000000
vt 0.000000 0.000000
vt 0.000000 0.000000
vt 0.000000 0.000000
vt 0.000000 0.000000
vt 0.000000 0.000000
vt 0.000000 0.000000
vt 0.000000 0.000000
vt 0.000000 0.000000
vt 0.000000 0.000000
vt 0.000000 0.000000
vt 0.000000 0.000000
vt 0.000000 0.000000
vt 0.000000 0.000000
vt 0.000000 0.000000
vt 0.000000 0.000000
vt 0.000000 0.000000
vn 0.0163 0.0000 0.9999
vn 0.0187 -0.6957 -0.7181
vn 0.0163 0.9999 0.0000
vn 0.0187 0.6957 0.7181
vn 0.0163 0.0000 -0.9999
vn 0.0163 -0.9999 0.0000
vn 0.0187 0.6957 -0.7181
vn 0.0187 -0.6957 0.7181
vn 1.0000 0.0000 0.0000
vn -0.0163 0.0000 0.9999
vn -0.0187 -0.6957 -0.7181
vn -0.0163 0.9999 0.0000
vn -0.0187 0.6957 0.7181
vn -0.0163 0.0000 -0.9999
vn -0.0163 -0.9999 0.0000
vn -0.0187 0.6957 -0.7181
vn -0.0187 -0.6957 0.7181
vn -1.0000 0.0000 0.0000
vn -0.0000 -0.0000 1.0000
vn 0.0000 0.0000 -1.0000
vn 0.0000 1.0000 0.0000
vn 0.0000 -1.0000 0.0000
vn 0.7071 0.7071 0.0000
vn 0.7071 -0.7071 0.0000
vn -0.6480 -0.6480 0.4004
vn -0.0000 -0.9163 0.4004
vn 0.6480 -0.6480 0.4004
vn 0.9163 0.0000 0.4004
vn 0.6480 0.6480 0.4004
vn -0.0000 0.9163 0.4004
vn -0.6480 0.6480 0.4004
vn -0.9163 0.0000 0.4004
vn 0.6480 -0.6480 -0.4004
vn 0.0000 -0.9163 -0.4004
vn -0.6480 -0.6480 -0.4004
vn -0.9163 0.0000 -0.4004
vn -0.6480 0.6480 -0.4004
vn 0.0000 0.9163 -0.4004
vn 0.6480 0.6480 -0.4004
vn 0.9163 0.0000 -0.4004
vn -0.7071 0.7071 -0.0000
vn -0.7071 -0.7071 -0.0000
usemtl (null)
s off
f 5/1/1 2/2/1 17/3/1 18/4/1
f 6/5/2 4/6/2 19/7/2 20/8/2
f 8/9/3 1/10/3 21/11/3 22/12/3
f 1/10/4 5/1/4 18/4/4 21/11/4
f 4/6/5 7/13/5 23/14/5 19/7/5
f 3/15/6 6/5/6 20/8/6 24/16/6
f 7/13/7 8/9/7 22/12/7 23/14/7
f 2/2/8 3/15/8 24/16/8 17/3/8
f 10/17/9 15/18/9 18/4/9 17/3/9
f 14/19/9 13/20/9 20/8/9 19/7/9
f 16/21/9 11/22/9 22/12/9 21/11/9
f 15/18/9 16/21/9 21/11/9 18/4/9
f 12/23/9 14/19/9 19/7/9 23/14/9
f 13/20/9 9/24/9 24/16/9 20/8/9
f 11/22/9 12/23/9 23/14/9 22/12/9
f 9/24/9 10/17/9 17/3/9 24/16/9
f 29/25/10 42/26/10 41/27/10 26/28/10
f 30/29/11 44/30/11 43/31/11 28/32/11
f 32/33/12 46/34/12 45/35/12 25/36/12
f 25/36/13 45/35/13 42/26/13 29/25/13
f 28/32/14 43/31/14 47/37/14 31/38/14
f 27/39/15 48/40/15 44/30/15 30/29/15
f 31/38/16 47/37/16 46/34/16 32/33/16
f 26/28/17 41/27/17 48/40/17 27/39/17
f 34/41/18 41/27/18 42/26/18 39/42/18
f 38/43/18 43/31/18 44/30/18 37/44/18
f 40/45/18 45/35/18 46/34/18 35/46/18
f 39/42/18 42/26/18 45/35/18 40/45/18
f 36/47/18 47/37/18 43/31/18 38/43/18
f 37/44/18 44/30/18 48/40/18 33/48/18
f 35/46/18 46/34/18 47/37/18 36/47/18
f 33/48/18 48/40/18 41/27/18 34/41/18
f 10/17/9 9/24/9 13/20/9 14/19/9 12/23/9 11/22/9 16/21/9 15/18/9
f 34/41/18 39/42/18 40/45/18 35/46/18 36/47/18 38/43/18 37/44/18 33/48/18
f 51/49/19 52/50/19 50/51/19 54/52/19 56/53/19 55/54/19 53/55/19 49/56/19
f 60/57/20 59/58/20 58/59/20 62/60/20 63/61/20 64/62/20 61/63/20 57/64/20
f 72/65/21 68/66/21 74/67/21 78/68/21
f 1/10/9 67/69/9 66/70/9 3/15/9 2/2/9 5/1/9
f 31/38/18 32/33/18 80/71/18 79/72/18 30/29/18 28/32/18
f 7/13/9 4/6/9 6/5/9 75/73/9 76/74/9 8/9/9
f 65/75/22 69/76/22 77/77/22 73/78/22
f 8/9/23 76/74/23 74/67/23 68/66/23 67/69/23 1/10/23
f 25/36/18 29/25/18 26/28/18 27/39/18 70/79/18 71/80/18
f 6/5/24 3/15/24 66/70/24 65/75/24 73/78/24 75/73/24
f 53/55/25 55/54/25 70/79/25 69/76/25
f 49/56/26 53/55/26 69/76/26 65/75/26
f 49/56/27 65/75/27 66/70/27 51/49/27
f 51/49/28 66/70/28 67/69/28 52/50/28
f 50/51/29 52/50/29 67/69/29 68/66/29
f 68/66/30 72/65/30 54/52/30 50/51/30
f 56/53/31 54/52/31 72/65/31 71/80/31
f 55/54/32 56/53/32 71/80/32 70/79/32
f 59/58/33 75/73/33 73/78/33 58/59/33
f 62/60/34 58/59/34 73/78/34 77/77/34
f 63/61/35 62/60/35 77/77/35 79/72/35
f 64/62/36 63/61/36 79/72/36 80/71/36
f 64/62/37 80/71/37 78/68/37 61/63/37
f 78/68/38 74/67/38 57/64/38 61/63/38
f 60/57/39 57/64/39 74/67/39 76/74/39
f 60/57/40 76/74/40 75/73/40 59/58/40
f 25/36/41 71/80/41 72/65/41 78/68/41 80/71/41 32/33/41
f 27/39/42 30/29/42 79/72/42 77/77/42 69/76/42 70/79/42
