# Blender v2.82 (sub 7) OBJ File: 'Fort Ticonderoga Class.blend'
# www.blender.org
mtllib Fort Ticonderoga Right Pod.mtl
o Right_Pod_Cube.011
v 12.463682 -0.044708 -0.013528
v 12.463682 0.044708 -0.013528
v 12.463682 -0.044708 -1.652681
v 12.463682 -0.819577 -0.926243
v 12.463682 0.819577 -0.739966
v 12.463682 0.819577 -0.926243
v 12.463682 0.044708 -1.652681
v 12.463682 -0.819577 -0.739966
v 17.757860 -0.044708 -0.013526
v 17.757860 0.044708 -0.013526
v 17.757860 -0.044708 -1.652680
v 17.757860 -0.819577 -0.926241
v 17.757860 0.819577 -0.739965
v 17.757860 0.819577 -0.926241
v 17.757860 0.044708 -1.652680
v 17.757860 -0.819577 -0.739965
v -2.223658 -1.588327 0.437555
v 17.712391 -1.588326 -0.833102
v 17.712391 1.588328 -0.833102
v 24.766027 -0.000002 -8.202940
v 17.712393 0.000001 -8.202941
v 21.239212 3.176653 -8.202941
v 21.239212 -3.176655 -8.202941
v 21.239208 -0.000001 6.536736
v 24.766027 -1.588329 -8.202940
v 17.712393 1.588328 -8.202941
v 23.002621 3.176652 -8.202940
v 19.475805 -3.176654 -8.202941
v 24.766027 1.588325 -8.202940
v 17.712393 -1.588326 -8.202941
v 19.475805 3.176654 -8.202941
v 23.002621 -3.176656 -8.202940
v 23.002617 -0.000001 6.536736
v 19.475801 0.000000 6.536736
v 21.239208 -1.588328 6.536736
v 21.239208 1.588326 6.536736
v 21.239212 -1.588328 -8.202941
v 21.239212 1.588326 -8.202941
v 23.002621 -0.000001 -8.202940
v 19.475805 0.000000 -8.202941
v 21.239210 3.176653 -0.833102
v 24.766026 -0.000002 -0.833101
v 21.239210 -3.176655 -0.833102
v 24.766026 1.588325 -0.833101
v 23.002619 3.176652 -0.833101
v 19.475805 1.588327 -8.202941
v 23.002621 1.588326 -8.202940
v 23.002621 -1.588329 -8.202940
v 19.475801 1.588327 6.536736
v 19.475801 -1.588327 6.536736
v 23.002617 -1.588329 6.536736
v 23.002617 1.588326 6.536736
v 19.475805 -1.588327 -8.202941
v 24.766026 -1.588329 -0.833101
v 23.002619 -3.176656 -0.833101
v 24.766027 0.794161 -8.202940
v 17.712393 -0.794163 -8.202941
v 20.357508 3.176654 -8.202941
v 22.120916 -3.176655 -8.202940
v 20.357504 -0.000000 6.536736
v 21.239208 0.794163 6.536736
v 21.239212 -2.382491 -8.202941
v 23.884325 -0.000002 -8.202940
v 21.239210 3.176653 -4.518022
v 24.766026 -0.000002 2.851818
v 21.239210 -3.176655 -4.518022
v 24.766027 -0.794166 -8.202940
v 17.712393 0.794164 -8.202941
v 22.120916 3.176653 -8.202940
v 20.357508 -3.176655 -8.202941
v 22.120913 -0.000001 6.536736
v 21.239208 -0.794164 6.536736
v 21.239212 2.382490 -8.202941
v 18.594101 0.000000 -8.202941
v 21.239210 3.176653 2.851817
v 24.766026 -0.000002 -4.518021
v 21.239210 -3.176655 2.851817
v 24.766026 1.588325 2.851818
v 24.766026 1.588325 -4.518021
v 24.766026 0.794161 -0.833101
v 23.002619 3.176652 -4.518022
v 23.002619 3.176652 2.851818
v 22.120914 3.176653 -0.833102
v 19.475805 0.794164 -8.202941
v 19.475805 2.382491 -8.202941
v 20.357508 1.588327 -8.202941
v 18.594101 1.588328 -8.202941
v 23.002621 0.794162 -8.202940
v 23.002621 2.382489 -8.202940
v 23.884325 1.588325 -8.202940
v 22.120916 1.588326 -8.202940
v 23.002621 -2.382492 -8.202940
v 23.002621 -0.794165 -8.202940
v 23.884325 -1.588329 -8.202940
v 22.120916 -1.588328 -8.202940
v 20.357504 1.588327 6.536736
v 19.475801 0.794164 6.536736
v 20.357504 -1.588328 6.536736
v 19.475801 -0.794164 6.536736
v 22.120913 -1.588328 6.536736
v 23.002617 -0.794165 6.536736
v 22.120913 1.588326 6.536736
v 23.002617 0.794162 6.536736
v 19.475805 -2.382490 -8.202941
v 19.475805 -0.794164 -8.202941
v 20.357508 -1.588328 -8.202941
v 18.594101 -1.588327 -8.202941
v 24.766026 -1.588329 2.851818
v 24.766026 -1.588329 -4.518021
v 24.766026 -0.794166 -0.833101
v 23.002619 -3.176656 -4.518022
v 23.002619 -3.176656 2.851818
v 22.120914 -3.176655 -0.833102
v 22.120914 -3.176655 2.851818
v 22.120914 -3.176655 -4.518022
v 24.766026 -0.794166 -4.518021
v 24.766026 -0.794166 2.851818
v 18.594101 -0.794163 -8.202941
v 20.357508 -2.382491 -8.202941
v 22.120913 0.794163 6.536736
v 22.120913 -0.794165 6.536736
v 20.357504 0.794163 6.536736
v 23.884325 -0.794165 -8.202940
v 23.884325 -2.382493 -8.202940
v 22.120916 2.382490 -8.202940
v 23.884325 2.382489 -8.202940
v 23.884325 0.794162 -8.202940
v 18.594101 2.382491 -8.202941
v 20.357508 2.382490 -8.202941
v 22.120914 3.176653 2.851818
v 24.766026 0.794161 -4.518021
v 24.766026 0.794161 2.851818
v 22.120914 3.176653 -4.518022
v 18.594101 0.794164 -8.202941
v 22.120916 -2.382492 -8.202940
v 20.357504 -0.794164 6.536736
v 18.594101 -2.382490 -8.202941
v 20.357506 -3.176655 -4.518022
v 20.357506 -3.176655 -0.833102
v 20.357506 -3.176655 2.851817
v 20.357506 3.176654 -4.518022
v 19.475803 3.176654 -4.518022
v 20.357506 3.176654 -0.833102
v 19.475803 3.176654 -0.833102
v 20.357506 3.176654 2.851817
v 19.475803 3.176654 2.851817
v 19.475803 -3.176654 2.851817
v 19.475803 -3.176654 -0.833102
v 19.475803 -3.176654 -4.518022
v 17.712391 1.588328 2.851817
v 17.712391 1.588328 -4.518023
v 17.712391 0.794164 -4.518023
v 17.712391 0.794164 2.851817
v 17.712391 0.000001 2.851817
v 17.712391 0.000001 -4.518023
v 17.712391 -0.794163 2.851817
v 17.712391 -0.794163 -4.518023
v 17.712391 -1.588326 -4.518023
v 17.712391 -1.588326 2.851817
v 17.712391 0.794164 -0.833102
v 17.712391 0.000001 -0.833102
v 17.712391 -0.794163 -0.833102
v 18.594099 -2.382491 -4.518022
v 18.594099 -2.382491 -0.833102
v 18.594099 -2.382491 2.851817
v 18.594099 2.382492 -4.518022
v 18.594099 2.382492 -0.833102
v 18.594099 2.382492 2.851817
v 23.884323 -2.382493 -4.518021
v 23.884323 -2.382493 -0.833101
v 23.884323 -2.382493 2.851818
v 23.884323 2.382489 2.851818
v 23.884323 2.382489 -0.833101
v 23.884323 2.382489 -4.518021
v 21.239212 -0.000001 -8.302941
v 21.239212 -1.588328 -8.302941
v 21.239212 1.588326 -8.302941
v 23.002621 -0.000001 -8.302940
v 19.475805 0.000000 -8.302941
v 19.475805 1.588327 -8.302941
v 23.002621 1.588326 -8.302940
v 23.002621 -1.588329 -8.302940
v 19.475805 -1.588327 -8.302941
v 21.239212 0.794163 -8.302941
v 20.357508 -0.000000 -8.302941
v 21.239212 -0.794164 -8.302941
v 22.120916 -0.000001 -8.302940
v 19.475805 0.794164 -8.302941
v 20.357508 1.588327 -8.302941
v 23.002621 0.794162 -8.302940
v 22.120916 1.588326 -8.302940
v 23.002621 -0.794165 -8.302940
v 22.120916 -1.588328 -8.302940
v 19.475805 -0.794164 -8.302941
v 20.357508 -1.588328 -8.302941
v 20.357508 -0.794164 -8.302941
v 22.120916 -0.794165 -8.302940
v 20.357508 0.794163 -8.302941
v 22.120916 0.794162 -8.302940
vt 0.463912 0.370928
vt 0.497928 0.339167
vt 0.497928 0.339167
vt 0.463912 0.370928
vt 0.497928 0.410833
vt 0.463912 0.379072
vt 0.502072 0.339167
vt 0.536088 0.370928
vt 0.536088 0.379072
vt 0.502072 0.410833
vt 0.502072 0.339167
vt 0.536088 0.370928
vt 0.536088 0.379072
vt 0.502072 0.410833
vt 0.497928 0.410833
vt 0.463912 0.379072
vt 0.000000 0.000000
vt 0.000000 0.000000
vt 0.000000 0.000000
vt 0.000000 0.000000
vt 0.000000 0.000000
vt 0.000000 0.000000
vt 0.000000 0.000000
vt 0.000000 0.000000
vt 0.000000 0.000000
vt 0.000000 0.000000
vt 0.000000 0.000000
vt 0.000000 0.000000
vt 0.000000 0.000000
vt 0.000000 0.000000
vt 0.000000 0.000000
vt 0.000000 0.000000
vt 0.000000 0.000000
vt 0.000000 0.000000
vt 0.000000 0.000000
vt 0.000000 0.000000
vt 0.000000 0.000000
vt 0.000000 0.000000
vt 0.000000 0.000000
vt 0.000000 0.000000
vt 0.000000 0.000000
vt 0.000000 0.000000
vt 0.000000 0.000000
vt 0.000000 0.000000
vt 0.000000 0.000000
vt 0.000000 0.000000
vt 0.000000 0.000000
vt 0.000000 0.000000
vt 0.000000 0.000000
vt 0.000000 0.000000
vt 0.000000 0.000000
vt 0.000000 0.000000
vt 0.000000 0.000000
vt 0.000000 0.000000
vt 0.000000 0.000000
vt 0.000000 0.000000
vt 0.000000 0.000000
vt 0.000000 0.000000
vt 0.000000 0.000000
vt 0.000000 0.000000
vt 0.000000 0.000000
vt 0.000000 0.000000
vt 0.000000 0.000000
vt 0.000000 0.000000
vt 0.000000 0.000000
vt 0.000000 0.000000
vt 0.000000 0.000000
vt 0.000000 0.000000
vt 0.000000 0.000000
vt 0.000000 0.000000
vt 0.000000 0.000000
vt 0.000000 0.000000
vt 0.000000 0.000000
vt 0.000000 0.000000
vt 0.000000 0.000000
vt 0.000000 0.000000
vt 0.000000 0.000000
vt 0.000000 0.000000
vt 0.000000 0.000000
vt 0.000000 0.000000
vt 0.000000 0.000000
vt 0.000000 0.000000
vt 0.000000 0.000000
vt 0.000000 0.000000
vt 0.000000 0.000000
vt 0.000000 0.000000
vt 0.000000 0.000000
vt 0.000000 0.000000
vt 0.000000 0.000000
vt 0.000000 0.000000
vt 0.000000 0.000000
vt 0.000000 0.000000
vt 0.000000 0.000000
vt 0.000000 0.000000
vt 0.000000 0.000000
vt 0.000000 0.000000
vt 0.000000 0.000000
vt 0.000000 0.000000
vt 0.000000 0.000000
vt 0.000000 0.000000
vt 0.000000 0.000000
vt 0.000000 0.000000
vt 0.000000 0.000000
vt 0.000000 0.000000
vt 0.000000 0.000000
vt 0.000000 0.000000
vt 0.000000 0.000000
vt 0.000000 0.000000
vt 0.000000 0.000000
vt 0.000000 0.000000
vt 0.000000 0.000000
vt 0.000000 0.000000
vt 0.000000 0.000000
vt 0.000000 0.000000
vt 0.000000 0.000000
vt 0.000000 0.000000
vt 0.000000 0.000000
vt 0.000000 0.000000
vt 0.000000 0.000000
vt 0.000000 0.000000
vt 0.000000 0.000000
vt 0.000000 0.000000
vt 0.000000 0.000000
vt 0.000000 0.000000
vt 0.000000 0.000000
vt 0.000000 0.000000
vt 0.000000 0.000000
vt 0.000000 0.000000
vt 0.000000 0.000000
vt 0.000000 0.000000
vt 0.000000 0.000000
vt 0.000000 0.000000
vt 0.000000 0.000000
vt 0.000000 0.000000
vt 0.000000 0.000000
vt 0.000000 0.000000
vt 0.000000 0.000000
vt 0.000000 0.000000
vt 0.000000 0.000000
vt 0.000000 0.000000
vt 0.000000 0.000000
vt 0.000000 0.000000
vt 0.000000 0.000000
vt 0.000000 0.000000
vt 0.000000 0.000000
vt 0.000000 0.000000
vt 0.000000 0.000000
vt 0.000000 0.000000
vt 0.000000 0.000000
vt 0.000000 0.000000
vt 0.000000 0.000000
vt 0.000000 0.000000
vt 0.000000 0.000000
vt 0.000000 0.000000
vt 0.000000 0.000000
vt 0.000000 0.000000
vt 0.000000 0.000000
vt 0.000000 0.000000
vt 0.000000 0.000000
vt 0.000000 0.000000
vt 0.000000 0.000000
vt 0.000000 0.000000
vt 0.000000 0.000000
vt 0.000000 0.000000
vt 0.000000 0.000000
vt 0.000000 0.000000
vt 0.000000 0.000000
vt 0.000000 0.000000
vt 0.000000 0.000000
vt 0.000000 0.000000
vt 0.000000 0.000000
vt 0.000000 0.000000
vt 0.000000 0.000000
vt 0.000000 0.000000
vt 0.000000 0.000000
vt 0.000000 0.000000
vt 0.000000 0.000000
vt 0.000000 0.000000
vt 0.000000 0.000000
vt 0.000000 0.000000
vt 0.000000 0.000000
vt 0.000000 0.000000
vt 0.000000 0.000000
vt 0.000000 0.000000
vt 0.000000 0.000000
vt 0.000000 0.000000
vt 0.000000 0.000000
vt 0.000000 0.000000
vt 0.000000 0.000000
vt 0.000000 0.000000
vt 0.000000 0.000000
vt 0.000000 0.000000
vt 0.000000 0.000000
vt 0.000000 0.000000
vt 0.000000 0.000000
vt 0.000000 0.000000
vt 0.000000 0.000000
vt 0.000000 0.000000
vn 0.0000 -0.6839 -0.7295
vn 1.0000 -0.0000 0.0000
vn 0.0000 0.6839 -0.7295
vn 0.0000 0.0000 -1.0000
vn 0.0000 1.0000 0.0000
vn -0.0000 0.0000 1.0000
vn -0.0000 -0.6839 0.7295
vn 0.0000 -1.0000 0.0000
vn -0.0000 0.6839 0.7295
vn -1.0000 0.0000 0.0000
vn 0.6374 -0.7076 0.3050
vn 0.9020 0.0000 0.4317
vn -0.9020 0.0000 0.4317
vn -0.6374 -0.7076 0.3050
vn 0.0000 0.9183 0.3958
vn 0.6693 0.7430 0.0000
vn 0.6693 -0.7430 0.0000
vn -0.6693 -0.7430 -0.0000
vn -0.6693 0.7430 0.0000
vn -0.6374 0.7076 0.3050
vn -0.0000 -0.9183 0.3958
vn 0.6374 0.7076 0.3050
usemtl (null)
s off
f 4/1/1 3/2/1 11/3/1 12/4/1
f 9/5/2 16/6/2 12/4/2 11/3/2 15/7/2 14/8/2 13/9/2 10/10/2
f 7/11/3 6/12/3 14/8/3 15/7/3
f 3/2/4 7/11/4 15/7/4 11/3/4
f 6/12/5 5/13/5 13/9/5 14/8/5
f 2/14/6 1/15/6 9/5/6 10/10/6
f 1/15/7 8/16/7 16/6/7 9/5/7
f 8/16/8 4/1/8 12/4/8 16/6/8
f 5/13/9 2/14/9 10/10/9 13/9/9
f 162/17/10 161/18/10 155/19/10 157/20/10
f 151/21/10 26/22/10 68/23/10 152/24/10
f 161/18/10 160/25/10 152/24/10 155/19/10
f 160/25/10 19/26/10 151/21/10 152/24/10
f 136/27/6 72/28/6 24/29/6 60/30/6
f 135/31/4 59/32/4 23/33/4 62/34/4
f 38/35/5 91/36/5 191/37/5 177/38/5
f 134/39/4 74/40/4 21/41/4 68/23/4
f 133/42/5 69/43/5 22/44/5 64/45/5
f 131/46/2 80/47/2 42/48/2 76/49/2
f 130/50/5 83/51/5 41/52/5 75/53/5
f 105/54/10 40/55/10 179/56/10 194/57/10
f 129/58/4 86/59/4 46/60/4 85/61/4
f 127/62/4 63/63/4 39/64/4 88/65/4
f 126/66/4 90/67/4 47/68/4 89/69/4
f 125/70/4 91/36/4 38/35/4 73/71/4
f 124/72/4 32/73/4 92/74/4
f 123/75/4 94/76/4 48/77/4 93/78/4
f 88/65/2 39/64/2 178/79/2 190/80/2
f 122/81/6 61/82/6 36/83/6 96/84/6
f 51/85/11 112/86/11 171/87/11 108/88/11
f 121/89/6 101/90/6 33/91/6 71/92/6
f 120/93/6 103/94/6 52/95/6 102/96/6
f 119/97/4 70/98/4 28/99/4 104/100/4
f 48/77/8 95/101/8 193/102/8 182/103/8
f 118/104/4 107/105/4 30/106/4 57/107/4
f 116/108/2 110/109/2 54/110/2 109/111/2
f 115/112/8 59/32/8 32/73/8 111/113/8
f 114/114/8 113/115/8 55/116/8 112/86/8
f 77/117/8 43/118/8 113/115/8 114/114/8
f 66/119/8 23/33/8 59/32/8 115/112/8
f 43/118/8 66/119/8 115/112/8 113/115/8
f 113/115/8 115/112/8 111/113/8 55/116/8
f 76/49/2 42/48/2 110/109/2 116/108/2
f 20/120/2 76/49/2 116/108/2 67/121/2
f 67/121/2 116/108/2 109/111/2 25/122/2
f 42/48/2 65/123/2 117/124/2 110/109/2
f 110/109/2 117/124/2 108/88/2 54/110/2
f 105/54/4 53/125/4 107/105/4 118/104/4
f 40/55/4 105/54/4 118/104/4 74/40/4
f 74/40/4 118/104/4 57/107/4 21/41/4
f 47/68/2 88/65/2 190/80/2 181/126/2
f 95/101/8 37/127/8 176/128/8 193/102/8
f 86/59/5 38/35/5 177/38/5 189/129/5
f 62/34/4 23/33/4 70/98/4 119/97/4
f 37/127/4 62/34/4 119/97/4 106/130/4
f 106/130/4 119/97/4 104/100/4 53/125/4
f 71/92/6 33/91/6 103/94/6 120/93/6
f 24/29/6 71/92/6 120/93/6 61/82/6
f 61/82/6 120/93/6 102/96/6 36/83/6
f 101/90/12 51/85/12 108/88/12 117/124/12 65/123/12 132/131/12 78/132/12 52/95/12 103/94/12 33/91/12
f 100/133/6 51/85/6 101/90/6 121/89/6
f 35/134/6 100/133/6 121/89/6 72/28/6
f 72/28/6 121/89/6 71/92/6 24/29/6
f 153/135/13 154/136/13 156/137/13 159/138/13 50/139/13 99/140/13 34/141/13 97/142/13 49/143/13 150/144/13
f 159/138/14 165/145/14 147/146/14 50/139/14
f 60/30/6 24/29/6 61/82/6 122/81/6
f 34/141/6 60/30/6 122/81/6 97/142/6
f 97/142/6 122/81/6 96/84/6 49/143/6
f 93/78/2 48/77/2 182/103/2 192/147/2
f 46/60/5 86/59/5 189/129/5 180/148/5
f 39/64/2 93/78/2 192/147/2 178/79/2
f 67/121/4 25/122/4 94/76/4 123/75/4
f 20/120/4 67/121/4 123/75/4 63/63/4
f 63/63/4 123/75/4 93/78/4 39/64/4
f 25/122/4 124/72/4 94/76/4
f 94/76/4 124/72/4 92/74/4 48/77/4
f 89/69/4 47/68/4 91/36/4 125/70/4
f 27/149/4 89/69/4 125/70/4 69/43/4
f 69/43/4 125/70/4 73/71/4 22/44/4
f 126/66/4 29/150/4 90/67/4
f 27/149/4 126/66/4 89/69/4
f 56/151/4 20/120/4 63/63/4 127/62/4
f 29/150/4 56/151/4 127/62/4 90/67/4
f 90/67/4 127/62/4 88/65/4 47/68/4
f 85/61/4 46/60/4 87/152/4 128/153/4
f 73/71/4 38/35/4 86/59/4 129/58/4
f 22/44/4 73/71/4 129/58/4 58/154/4
f 58/154/4 129/58/4 85/61/4 31/155/4
f 40/55/10 84/156/10 188/157/10 179/56/10
f 37/127/8 106/130/8 195/158/8 176/128/8
f 91/36/5 47/68/5 181/126/5 191/37/5
f 82/159/5 45/160/5 83/51/5 130/50/5
f 79/161/2 44/162/2 80/47/2 131/46/2
f 29/150/2 79/161/2 131/46/2 56/151/2
f 56/151/2 131/46/2 76/49/2 20/120/2
f 44/162/2 78/132/2 132/131/2 80/47/2
f 80/47/2 132/131/2 65/123/2 42/48/2
f 81/163/5 27/149/5 69/43/5 133/42/5
f 45/160/5 81/163/5 133/42/5 83/51/5
f 83/51/5 133/42/5 64/45/5 41/52/5
f 84/156/4 40/55/4 74/40/4 134/39/4
f 46/60/4 84/156/4 134/39/4 87/152/4
f 87/152/4 134/39/4 68/23/4 26/22/4
f 84/156/10 46/60/10 180/148/10 188/157/10
f 53/125/10 105/54/10 194/57/10 183/164/10
f 106/130/8 53/125/8 183/164/8 195/158/8
f 92/74/4 32/73/4 59/32/4 135/31/4
f 48/77/4 92/74/4 135/31/4 95/101/4
f 95/101/4 135/31/4 62/34/4 37/127/4
f 36/83/15 102/96/15 52/95/15 82/159/15 130/50/15 75/53/15 145/165/15 146/166/15 49/143/15 96/84/15
f 98/167/6 35/134/6 72/28/6 136/27/6
f 50/139/6 98/167/6 136/27/6 99/140/6
f 99/140/6 136/27/6 60/30/6 34/141/6
f 53/125/4 104/100/4 137/168/4 107/105/4
f 139/169/8 43/118/8 77/117/8 140/170/8
f 138/171/8 66/119/8 43/118/8 139/169/8
f 70/98/8 23/33/8 66/119/8 138/171/8
f 148/172/8 139/169/8 140/170/8 147/146/8
f 149/173/8 138/171/8 139/169/8 148/172/8
f 28/99/8 70/98/8 138/171/8 149/173/8
f 64/45/5 22/44/5 58/154/5 141/174/5
f 141/174/5 58/154/5 31/155/5 142/175/5
f 143/176/5 141/174/5 142/175/5 144/177/5
f 41/52/5 64/45/5 141/174/5 143/176/5
f 145/165/5 143/176/5 144/177/5 146/166/5
f 75/53/5 41/52/5 143/176/5 145/165/5
f 152/24/10 68/23/10 21/41/10 155/19/10
f 18/178/10 162/17/10 157/20/10 158/179/10
f 155/19/10 21/41/10 57/107/10 157/20/10
f 157/20/10 57/107/10 30/106/10 158/179/10
f 85/61/4 128/153/4 31/155/4
f 87/152/4 26/22/4 128/153/4
f 107/105/4 137/168/4 30/106/4
f 104/100/4 28/99/4 137/168/4
f 174/180/16 126/66/16 27/149/16 81/163/16
f 169/181/17 124/72/17 25/122/17 109/111/17
f 163/182/18 158/179/18 30/106/18 137/168/18
f 156/137/10 154/136/10 161/18/10 162/17/10
f 154/136/10 153/135/10 160/25/10 161/18/10
f 153/135/10 150/144/10 19/26/10 160/25/10
f 159/138/10 156/137/10 162/17/10 18/178/10
f 164/183/18 18/178/18 158/179/18 163/182/18
f 165/145/18 159/138/18 18/178/18 164/183/18
f 167/184/19 168/185/19 146/166/19 144/177/19
f 166/186/19 167/184/19 144/177/19 142/175/19
f 128/153/19 166/186/19 142/175/19 31/155/19
f 147/146/18 165/145/18 164/183/18 148/172/18
f 148/172/18 164/183/18 163/182/18 149/173/18
f 149/173/18 163/182/18 137/168/18 28/99/18
f 19/26/19 150/144/19 168/185/19 167/184/19
f 151/21/19 19/26/19 167/184/19 166/186/19
f 26/22/19 151/21/19 166/186/19 128/153/19
f 49/143/20 146/166/20 150/144/20
f 173/187/16 174/180/16 81/163/16 45/160/16
f 173/187/16 45/160/16 82/159/16 172/188/16
f 170/189/17 55/116/17 111/113/17 169/181/17
f 171/87/17 112/86/17 55/116/17 170/189/17
f 108/88/17 171/87/17 170/189/17 54/110/17
f 54/110/17 170/189/17 169/181/17 109/111/17
f 111/113/17 32/73/17 124/72/17 169/181/17
f 98/167/21 50/139/21 147/146/21 140/170/21 77/117/21 114/114/21 112/86/21 51/85/21 100/133/21 35/134/21
f 44/162/16 79/161/16 174/180/16 173/187/16
f 44/162/16 173/187/16 172/188/16 78/132/16
f 82/159/22 52/95/22 78/132/22 172/188/22
f 79/161/16 29/150/16 126/66/16 174/180/16
f 199/190/4 187/191/4 175/192/4 184/193/4
f 198/194/4 185/195/4 179/56/4 188/157/4
f 197/196/4 193/102/4 176/128/4 186/197/4
f 196/198/4 195/158/4 183/164/4 194/57/4
f 186/197/4 176/128/4 195/158/4 196/198/4
f 175/192/4 186/197/4 196/198/4 185/195/4
f 185/195/4 196/198/4 194/57/4 179/56/4
f 192/147/4 182/103/4 193/102/4 197/196/4
f 178/79/4 192/147/4 197/196/4 187/191/4
f 187/191/4 197/196/4 186/197/4 175/192/4
f 184/193/4 175/192/4 185/195/4 198/194/4
f 177/38/4 184/193/4 198/194/4 189/129/4
f 189/129/4 198/194/4 188/157/4 180/148/4
f 190/80/4 178/79/4 187/191/4 199/190/4
f 181/126/4 190/80/4 199/190/4 191/37/4
f 191/37/4 199/190/4 184/193/4 177/38/4
f 1/15/10 2/14/10 5/13/10 6/12/10 7/11/10 3/2/10 4/1/10 8/16/10
