# Blender v2.83.0 OBJ File: ''
# www.blender.org
mtllib hex1m_singleColumn.mtl
o Cylinder
v 0.000000 -0.500000 -1.000000
v 0.000000 0.500000 -0.053457
v 0.866025 -0.500000 -0.500000
v 0.046295 0.500000 -0.026728
v 0.866025 -0.500000 0.500000
v 0.046295 0.500000 0.026728
v -0.000000 -0.500000 1.000000
v 0.000000 0.500000 0.053457
v -0.866025 -0.500000 0.500000
v -0.046295 0.500000 0.026728
v -0.866025 -0.500000 -0.500000
v -0.046295 0.500000 -0.026728
v 0.866025 0.500000 -0.500000
v 0.000000 0.500000 -1.000000
v 0.866025 0.500000 0.500000
v -0.000000 0.500000 1.000000
v -0.866025 0.500000 0.500000
v -0.866025 0.500000 -0.500000
v 0.046295 0.814455 -0.026728
v -0.000000 0.814455 -0.053457
v 0.046295 0.814455 0.026728
v -0.000000 0.814455 0.053457
v -0.046295 0.814455 0.026728
v -0.046295 0.814455 -0.026728
vt 1.000000 0.500000
vt 1.000000 1.000000
vt 0.833333 1.000000
vt 0.833333 0.500000
vt 0.666667 1.000000
vt 0.666667 0.500000
vt 0.500000 1.000000
vt 0.500000 0.500000
vt 0.333333 1.000000
vt 0.333333 0.500000
vt 0.250000 0.237170
vt 0.261111 0.243585
vt 0.261111 0.243585
vt 0.250000 0.237170
vt 0.166667 1.000000
vt 0.166667 0.500000
vt -0.000000 1.000000
vt -0.000000 0.500000
vt 0.750000 0.490000
vt 0.957846 0.370000
vt 0.957846 0.130000
vt 0.750000 0.010000
vt 0.542154 0.130000
vt 0.542154 0.370000
vt 0.250000 0.262830
vt 0.261111 0.256415
vt 0.457846 0.370000
vt 0.250000 0.490000
vt 0.457846 0.130000
vt 0.250000 0.010000
vt 0.238889 0.243585
vt 0.042154 0.130000
vt 0.238889 0.256415
vt 0.042154 0.370000
vt 0.261111 0.256415
vt 0.250000 0.262830
vt 0.238889 0.256415
vt 0.238889 0.243585
vn 0.5000 0.0000 -0.8660
vn 1.0000 0.0000 0.0000
vn 0.5000 0.0000 0.8660
vn -0.5000 0.0000 0.8660
vn -1.0000 0.0000 0.0000
vn -0.5000 0.0000 -0.8660
vn 0.0000 -1.0000 0.0000
vn 0.0000 1.0000 0.0000
usemtl None
s off
f 1/1/1 14/2/1 13/3/1 3/4/1
f 3/4/2 13/3/2 15/5/2 5/6/2
f 5/6/3 15/5/3 16/7/3 7/8/3
f 7/8/4 16/7/4 17/9/4 9/10/4
f 8/11/3 6/12/3 21/13/3 22/14/3
f 9/10/5 17/9/5 18/15/5 11/16/5
f 11/16/6 18/15/6 14/17/6 1/18/6
f 1/19/7 3/20/7 5/21/7 7/22/7 9/23/7 11/24/7
f 2/25/8 4/26/8 13/27/8 14/28/8
f 4/26/8 6/12/8 15/29/8 13/27/8
f 6/12/8 8/11/8 16/30/8 15/29/8
f 8/11/8 10/31/8 17/32/8 16/30/8
f 10/31/8 12/33/8 18/34/8 17/32/8
f 12/33/8 2/25/8 14/28/8 18/34/8
f 19/35/8 20/36/8 24/37/8 23/38/8 22/14/8 21/13/8
f 4/26/1 2/25/1 20/36/1 19/35/1
f 2/25/6 12/33/6 24/37/6 20/36/6
f 10/31/4 8/11/4 22/14/4 23/38/4
f 6/12/2 4/26/2 19/35/2 21/13/2
f 12/33/5 10/31/5 23/38/5 24/37/5
